G04 #@! TF.FileFunction,Copper,L1,Top,Signal*
%FSLAX46Y46*%
G04 Gerber Fmt 4.6, Leading zero omitted, Abs format (unit mm)*
G04 Created by KiCad (PCBNEW 4.0.7) date 02/07/18 15:21:04*
%MOMM*%
%LPD*%
G01*
G04 APERTURE LIST*
%ADD10C,0.100000*%
%ADD11C,0.300000*%
%ADD12R,1.397000X1.397000*%
%ADD13C,1.397000*%
%ADD14C,2.499360*%
%ADD15O,2.032000X2.540000*%
%ADD16C,3.000000*%
%ADD17R,1.524000X1.524000*%
%ADD18C,1.524000*%
%ADD19R,1.700000X1.700000*%
%ADD20O,1.700000X1.700000*%
%ADD21C,8.500000*%
%ADD22R,1.700000X2.000000*%
%ADD23R,1.800000X1.800000*%
%ADD24C,1.800000*%
%ADD25R,1.600000X2.000000*%
%ADD26R,1.700000X1.200000*%
%ADD27O,1.700000X1.200000*%
%ADD28C,0.600000*%
%ADD29C,1.000000*%
%ADD30C,0.750000*%
%ADD31C,0.254000*%
G04 APERTURE END LIST*
D10*
D11*
X111078571Y-64907143D02*
X111221428Y-64978571D01*
X111507143Y-64978571D01*
X111650000Y-64907143D01*
X111721428Y-64764286D01*
X111721428Y-64692857D01*
X111650000Y-64550000D01*
X111507143Y-64478571D01*
X111292857Y-64478571D01*
X111150000Y-64407143D01*
X111078571Y-64264286D01*
X111078571Y-64192857D01*
X111150000Y-64050000D01*
X111292857Y-63978571D01*
X111507143Y-63978571D01*
X111650000Y-64050000D01*
X113150000Y-63978571D02*
X113150000Y-64978571D01*
X112650000Y-63978571D02*
X112650000Y-64764286D01*
X112578572Y-64907143D01*
X112435714Y-64978571D01*
X113435714Y-63978571D02*
X112507143Y-63978571D01*
X112364286Y-64050000D01*
X112292857Y-64192857D01*
X114007143Y-64978571D02*
X114007143Y-63478571D01*
X114150000Y-64407143D02*
X114578571Y-64978571D01*
X114578571Y-63978571D02*
X114007143Y-64550000D01*
X115078572Y-63978571D02*
X115435715Y-64978571D01*
X115792857Y-63978571D02*
X115435715Y-64978571D01*
X115292857Y-65335714D01*
X115221429Y-65407143D01*
X115078572Y-65478571D01*
D12*
X107250000Y-99420000D03*
D13*
X107250000Y-104500000D03*
X172200000Y-119000000D03*
X169660000Y-119000000D03*
X167120000Y-119000000D03*
X164580000Y-119000000D03*
X162040000Y-119000000D03*
X159500000Y-119000000D03*
X120700000Y-119000000D03*
X118160000Y-119000000D03*
X115620000Y-119000000D03*
X113080000Y-119000000D03*
X110540000Y-119000000D03*
X108000000Y-119000000D03*
X102000000Y-108830000D03*
X102000000Y-106290000D03*
X102000000Y-103750000D03*
D14*
X179000000Y-73670000D03*
X179000000Y-78750000D03*
D15*
X119500000Y-41500000D03*
X122040000Y-41500000D03*
X116960000Y-41500000D03*
D16*
X96300000Y-61400000D03*
X96300000Y-56700000D03*
X96300000Y-52000000D03*
D17*
X114120000Y-90030000D03*
D18*
X114120000Y-87490000D03*
X114120000Y-84950000D03*
X114120000Y-82410000D03*
X114120000Y-79870000D03*
X114120000Y-79870000D03*
X114120000Y-77330000D03*
X114120000Y-74790000D03*
X114120000Y-72250000D03*
X106500000Y-72250000D03*
X106500000Y-74790000D03*
X106500000Y-77330000D03*
X106500000Y-79870000D03*
X106500000Y-82410000D03*
X106500000Y-84950000D03*
X106500000Y-87490000D03*
X106500000Y-90030000D03*
X176250000Y-90340000D03*
X176250000Y-90340000D03*
X176250000Y-92880000D03*
X176250000Y-92880000D03*
X176250000Y-95420000D03*
X176250000Y-95420000D03*
X176250000Y-97960000D03*
X176250000Y-97960000D03*
X176250000Y-100500000D03*
X176250000Y-100500000D03*
D13*
X176250000Y-53380000D03*
X176250000Y-55920000D03*
X176250000Y-58460000D03*
X176250000Y-61000000D03*
X148290000Y-119000000D03*
X145750000Y-119000000D03*
X134290000Y-119000000D03*
X131750000Y-119000000D03*
D19*
X162250000Y-69750000D03*
D20*
X162250000Y-72290000D03*
X162250000Y-74830000D03*
X162250000Y-77370000D03*
X162250000Y-79910000D03*
X162250000Y-82450000D03*
X162250000Y-84990000D03*
X162250000Y-87530000D03*
X162250000Y-90070000D03*
X162250000Y-92610000D03*
X162250000Y-95150000D03*
X162250000Y-97690000D03*
X162250000Y-100230000D03*
X162250000Y-102770000D03*
X162250000Y-105310000D03*
D19*
X125000000Y-69750000D03*
D20*
X125000000Y-72290000D03*
X125000000Y-74830000D03*
X125000000Y-77370000D03*
X125000000Y-79910000D03*
X125000000Y-82450000D03*
X125000000Y-84990000D03*
X125000000Y-87530000D03*
X125000000Y-90070000D03*
X125000000Y-92610000D03*
X125000000Y-95150000D03*
X125000000Y-97690000D03*
X125000000Y-100230000D03*
X125000000Y-102770000D03*
X125000000Y-105310000D03*
D21*
X96000000Y-38750000D03*
X182000000Y-124750000D03*
X96000000Y-124750000D03*
X182000000Y-38750000D03*
D22*
X162000000Y-51250000D03*
X162000000Y-47250000D03*
X157000000Y-51250000D03*
X157000000Y-47250000D03*
X152500000Y-51250000D03*
X152500000Y-47250000D03*
X145750000Y-51250000D03*
X145750000Y-47250000D03*
X142000000Y-51250000D03*
X142000000Y-47250000D03*
D19*
X113250000Y-60750000D03*
D20*
X115790000Y-60750000D03*
X118330000Y-60750000D03*
X120870000Y-60750000D03*
X123410000Y-60750000D03*
D19*
X151250000Y-71000000D03*
D20*
X151250000Y-73540000D03*
X151250000Y-76080000D03*
X151250000Y-78620000D03*
X151250000Y-81160000D03*
X151250000Y-83700000D03*
X151250000Y-86240000D03*
X151250000Y-88780000D03*
X151250000Y-91320000D03*
X151250000Y-93860000D03*
X151250000Y-96400000D03*
X151250000Y-98940000D03*
X151250000Y-101480000D03*
X151250000Y-104020000D03*
D19*
X136000000Y-71000000D03*
D20*
X136000000Y-73540000D03*
X136000000Y-76080000D03*
X136000000Y-78620000D03*
X136000000Y-81160000D03*
X136000000Y-83700000D03*
X136000000Y-86240000D03*
X136000000Y-88780000D03*
X136000000Y-91320000D03*
X136000000Y-93860000D03*
X136000000Y-96400000D03*
X136000000Y-98940000D03*
X136000000Y-101480000D03*
X136000000Y-104020000D03*
D23*
X165000000Y-38000000D03*
D24*
X165000000Y-40540000D03*
D23*
X156750000Y-38000000D03*
D24*
X156750000Y-40540000D03*
D23*
X148500000Y-38000000D03*
D24*
X148500000Y-40540000D03*
D23*
X140250000Y-38000000D03*
D24*
X140250000Y-40540000D03*
D25*
X128000000Y-46750000D03*
X128000000Y-50750000D03*
X112000000Y-46750000D03*
X112000000Y-50750000D03*
D12*
X111250000Y-99420000D03*
D13*
X111250000Y-104500000D03*
D12*
X115000000Y-99420000D03*
D13*
X115000000Y-104500000D03*
D12*
X118750000Y-99420000D03*
D13*
X118750000Y-104500000D03*
D22*
X170300000Y-68900000D03*
X170300000Y-64900000D03*
D25*
X98700000Y-114100000D03*
X98700000Y-118100000D03*
D22*
X94500000Y-114100000D03*
X94500000Y-118100000D03*
D26*
X96200000Y-80000000D03*
D27*
X96200000Y-78000000D03*
D28*
X166000000Y-115500000D03*
X153900000Y-115900000D03*
X95100000Y-96400000D03*
X116900000Y-64500000D03*
X120700000Y-91700000D03*
X114300000Y-67600000D03*
X150300000Y-58800000D03*
X157200000Y-58800000D03*
X109600000Y-123500000D03*
X112300000Y-82400000D03*
X111000000Y-82400000D03*
X108800000Y-81000000D03*
X111600000Y-81000000D03*
X108000000Y-82400000D03*
X109600000Y-82400000D03*
X112400000Y-79900000D03*
X110900000Y-79900000D03*
X109600000Y-79900000D03*
X108000000Y-79900000D03*
X170300000Y-61300000D03*
X170300000Y-72900000D03*
D29*
X112000000Y-46750000D02*
X112000000Y-43200000D01*
X112000000Y-43200000D02*
X113700000Y-41500000D01*
X100000000Y-56700000D02*
X101300000Y-55400000D01*
X113700000Y-41500000D02*
X116960000Y-41500000D01*
X109100000Y-41500000D02*
X112000000Y-41500000D01*
X112000000Y-41500000D02*
X112400000Y-41500000D01*
X112400000Y-41500000D02*
X113700000Y-41500000D01*
X101300000Y-49300000D02*
X109100000Y-41500000D01*
X101300000Y-55400000D02*
X101300000Y-49300000D01*
X96300000Y-56700000D02*
X100000000Y-56700000D01*
X100000000Y-56700000D02*
X100100000Y-56700000D01*
X116960000Y-41500000D02*
X116960000Y-39040000D01*
X137250000Y-51250000D02*
X142000000Y-51250000D01*
X123750000Y-37750000D02*
X137250000Y-51250000D01*
X118250000Y-37750000D02*
X123750000Y-37750000D01*
X116960000Y-39040000D02*
X118250000Y-37750000D01*
X142000000Y-51250000D02*
X145750000Y-51250000D01*
X152500000Y-51250000D02*
X152500000Y-54200000D01*
X130400000Y-46750000D02*
X128000000Y-46750000D01*
X150700000Y-56000000D02*
X152500000Y-54200000D01*
X139700000Y-56000000D02*
X150700000Y-56000000D01*
X130450000Y-46750000D02*
X139700000Y-56000000D01*
X130400000Y-46750000D02*
X130450000Y-46750000D01*
X122040000Y-41500000D02*
X122040000Y-43540000D01*
X125250000Y-46750000D02*
X128000000Y-46750000D01*
X122040000Y-43540000D02*
X125250000Y-46750000D01*
X165500000Y-116000000D02*
X166000000Y-115500000D01*
X165500000Y-116000000D02*
X163100000Y-116000000D01*
X164580000Y-119000000D02*
X164580000Y-117480000D01*
X164580000Y-117480000D02*
X163100000Y-116000000D01*
X153900000Y-115900000D02*
X154000000Y-116000000D01*
X154000000Y-116000000D02*
X163100000Y-116000000D01*
X99370000Y-90030000D02*
X106500000Y-90030000D01*
X95100000Y-94300000D02*
X99370000Y-90030000D01*
X95100000Y-96400000D02*
X95100000Y-94300000D01*
X151250000Y-71000000D02*
X156500000Y-71000000D01*
X157750000Y-69750000D02*
X162250000Y-69750000D01*
X156500000Y-71000000D02*
X157750000Y-69750000D01*
X162250000Y-69750000D02*
X162250000Y-72290000D01*
D30*
X162250000Y-87530000D02*
X166030000Y-87530000D01*
X171380000Y-92880000D02*
X176250000Y-92880000D01*
X166030000Y-87530000D02*
X171380000Y-92880000D01*
X151250000Y-88780000D02*
X156470000Y-88780000D01*
X157720000Y-87530000D02*
X162250000Y-87530000D01*
X156470000Y-88780000D02*
X157720000Y-87530000D01*
X162250000Y-90070000D02*
X164670000Y-90070000D01*
X172420000Y-95420000D02*
X176250000Y-95420000D01*
X170020000Y-95420000D02*
X172420000Y-95420000D01*
X164670000Y-90070000D02*
X170020000Y-95420000D01*
X151250000Y-91320000D02*
X156320000Y-91320000D01*
X157570000Y-90070000D02*
X162250000Y-90070000D01*
X156320000Y-91320000D02*
X157570000Y-90070000D01*
X172750000Y-56900000D02*
X172750000Y-55150000D01*
X174520000Y-53380000D02*
X176250000Y-53380000D01*
X172750000Y-55150000D02*
X174520000Y-53380000D01*
X162250000Y-82450000D02*
X163800000Y-82450000D01*
X172750000Y-73500000D02*
X172750000Y-56900000D01*
X163800000Y-82450000D02*
X172750000Y-73500000D01*
X151250000Y-83700000D02*
X156550000Y-83700000D01*
X157800000Y-82450000D02*
X162250000Y-82450000D01*
X156550000Y-83700000D02*
X157800000Y-82450000D01*
X176250000Y-61000000D02*
X176250000Y-74050000D01*
X164010000Y-84990000D02*
X162250000Y-84990000D01*
X164020000Y-85000000D02*
X164010000Y-84990000D01*
X165300000Y-85000000D02*
X164020000Y-85000000D01*
X176250000Y-74050000D02*
X165300000Y-85000000D01*
X151250000Y-86240000D02*
X156510000Y-86240000D01*
X157760000Y-84990000D02*
X162250000Y-84990000D01*
X156510000Y-86240000D02*
X157760000Y-84990000D01*
X151250000Y-96400000D02*
X156400000Y-96400000D01*
X157650000Y-95150000D02*
X162250000Y-95150000D01*
X156400000Y-96400000D02*
X157650000Y-95150000D01*
X151250000Y-93860000D02*
X156390000Y-93860000D01*
X157640000Y-92610000D02*
X162250000Y-92610000D01*
X156390000Y-93860000D02*
X157640000Y-92610000D01*
X151250000Y-98940000D02*
X156310000Y-98940000D01*
X156310000Y-98940000D02*
X157560000Y-97690000D01*
X157560000Y-97690000D02*
X162250000Y-97690000D01*
X151250000Y-101480000D02*
X156270000Y-101480000D01*
X156270000Y-101480000D02*
X157520000Y-100230000D01*
X157520000Y-100230000D02*
X162250000Y-100230000D01*
X122750000Y-97400000D02*
X122750000Y-95950000D01*
X119500000Y-101500000D02*
X122750000Y-98250000D01*
X122750000Y-98250000D02*
X122750000Y-97400000D01*
X116750000Y-101500000D02*
X118000000Y-101500000D01*
X103920000Y-108830000D02*
X105250000Y-107500000D01*
X105250000Y-107500000D02*
X105250000Y-103250000D01*
X105250000Y-103250000D02*
X107000000Y-101500000D01*
X107000000Y-101500000D02*
X116750000Y-101500000D01*
X102000000Y-108830000D02*
X103920000Y-108830000D01*
X118000000Y-101500000D02*
X119500000Y-101500000D01*
X123550000Y-95150000D02*
X125000000Y-95150000D01*
X122750000Y-95950000D02*
X123550000Y-95150000D01*
X136000000Y-96400000D02*
X130650000Y-96400000D01*
X129400000Y-95150000D02*
X125000000Y-95150000D01*
X130650000Y-96400000D02*
X129400000Y-95150000D01*
X125000000Y-74830000D02*
X123530000Y-74830000D01*
X118330000Y-68330000D02*
X118330000Y-60750000D01*
X118330000Y-69630000D02*
X118330000Y-68330000D01*
X123530000Y-74830000D02*
X118330000Y-69630000D01*
X136000000Y-76080000D02*
X130580000Y-76080000D01*
X129330000Y-74830000D02*
X125000000Y-74830000D01*
X130580000Y-76080000D02*
X129330000Y-74830000D01*
X120870000Y-60750000D02*
X120870000Y-69526494D01*
X123633506Y-72290000D02*
X125000000Y-72290000D01*
X120870000Y-69526494D02*
X123633506Y-72290000D01*
X136000000Y-73540000D02*
X130540000Y-73540000D01*
X129290000Y-72290000D02*
X125000000Y-72290000D01*
X130540000Y-73540000D02*
X129290000Y-72290000D01*
X125000000Y-77370000D02*
X123470000Y-77370000D01*
X116300000Y-68100000D02*
X116300000Y-65100000D01*
X116300000Y-65100000D02*
X116900000Y-64500000D01*
X116300000Y-70200000D02*
X116300000Y-68100000D01*
X123470000Y-77370000D02*
X116300000Y-70200000D01*
X136000000Y-78620000D02*
X130870000Y-78620000D01*
X129620000Y-77370000D02*
X125000000Y-77370000D01*
X130870000Y-78620000D02*
X129620000Y-77370000D01*
X125000000Y-87530000D02*
X114160000Y-87530000D01*
X136000000Y-88780000D02*
X130280000Y-88780000D01*
X129030000Y-87530000D02*
X125000000Y-87530000D01*
X130280000Y-88780000D02*
X129030000Y-87530000D01*
X136000000Y-81160000D02*
X131160000Y-81160000D01*
X131160000Y-81160000D02*
X129910000Y-79910000D01*
X129910000Y-79910000D02*
X125000000Y-79910000D01*
X108090000Y-87490000D02*
X106500000Y-87490000D01*
X114400000Y-93800000D02*
X108090000Y-87490000D01*
X119700000Y-93800000D02*
X114400000Y-93800000D01*
X120700000Y-92800000D02*
X119700000Y-93800000D01*
X120700000Y-91700000D02*
X120700000Y-92800000D01*
X136000000Y-86240000D02*
X130510000Y-86240000D01*
X129260000Y-84990000D02*
X125000000Y-84990000D01*
X130510000Y-86240000D02*
X129260000Y-84990000D01*
X125000000Y-82450000D02*
X123550000Y-82450000D01*
X108510000Y-74790000D02*
X106500000Y-74790000D01*
X109400000Y-73900000D02*
X108510000Y-74790000D01*
X109400000Y-71300000D02*
X109400000Y-73900000D01*
X111100000Y-69600000D02*
X109400000Y-71300000D01*
X114200000Y-69600000D02*
X111100000Y-69600000D01*
X122400000Y-77800000D02*
X114200000Y-69600000D01*
X122400000Y-81300000D02*
X122400000Y-77800000D01*
X123550000Y-82450000D02*
X122400000Y-81300000D01*
X136000000Y-83700000D02*
X130800000Y-83700000D01*
X129550000Y-82450000D02*
X125000000Y-82450000D01*
X130800000Y-83700000D02*
X129550000Y-82450000D01*
X125000000Y-90070000D02*
X114160000Y-90070000D01*
X136000000Y-91320000D02*
X130820000Y-91320000D01*
X129570000Y-90070000D02*
X125000000Y-90070000D01*
X130820000Y-91320000D02*
X129570000Y-90070000D01*
X109000000Y-67600000D02*
X114300000Y-67600000D01*
X106500000Y-70100000D02*
X109000000Y-67600000D01*
X106500000Y-72250000D02*
X106500000Y-70100000D01*
X136000000Y-93860000D02*
X130610000Y-93860000D01*
X130610000Y-93860000D02*
X129360000Y-92610000D01*
X129360000Y-92610000D02*
X125000000Y-92610000D01*
X136000000Y-98940000D02*
X138040000Y-98940000D01*
X179000000Y-101500000D02*
X171500000Y-109000000D01*
X171500000Y-109000000D02*
X142250000Y-109000000D01*
X142250000Y-109000000D02*
X139250000Y-106000000D01*
X139250000Y-106000000D02*
X139250000Y-102190000D01*
X179000000Y-101500000D02*
X179000000Y-78750000D01*
X139250000Y-100150000D02*
X139250000Y-102190000D01*
X138040000Y-98940000D02*
X139250000Y-100150000D01*
X136000000Y-98940000D02*
X130690000Y-98940000D01*
X129440000Y-97690000D02*
X125000000Y-97690000D01*
X130690000Y-98940000D02*
X129440000Y-97690000D01*
D29*
X151250000Y-76080000D02*
X149180000Y-76080000D01*
X148500000Y-64000000D02*
X149250000Y-63250000D01*
X148500000Y-75400000D02*
X148500000Y-64000000D01*
X149180000Y-76080000D02*
X148500000Y-75400000D01*
X157000000Y-55500000D02*
X157000000Y-51250000D01*
X149250000Y-63250000D02*
X157000000Y-55500000D01*
X151250000Y-76080000D02*
X156670000Y-76080000D01*
X157920000Y-74830000D02*
X162250000Y-74830000D01*
X156670000Y-76080000D02*
X157920000Y-74830000D01*
X162250000Y-74830000D02*
X162250000Y-77370000D01*
D30*
X148500000Y-59900000D02*
X149600000Y-58800000D01*
X148500000Y-59900000D02*
X146500000Y-61900000D01*
X146500000Y-61900000D02*
X146500000Y-63750000D01*
X151250000Y-104020000D02*
X148420000Y-104020000D01*
X146500000Y-99750000D02*
X146500000Y-63750000D01*
X146500000Y-102100000D02*
X146500000Y-99750000D01*
X148420000Y-104020000D02*
X146500000Y-102100000D01*
X159400000Y-58800000D02*
X157200000Y-58800000D01*
X162000000Y-56200000D02*
X159400000Y-58800000D01*
X162000000Y-56200000D02*
X162000000Y-51250000D01*
X149600000Y-58800000D02*
X150300000Y-58800000D01*
X151250000Y-104020000D02*
X155980000Y-104020000D01*
X157230000Y-102770000D02*
X162250000Y-102770000D01*
X155980000Y-104020000D02*
X157230000Y-102770000D01*
D29*
X142000000Y-47250000D02*
X142000000Y-45200000D01*
X142000000Y-45200000D02*
X140250000Y-43450000D01*
X140250000Y-40540000D02*
X140250000Y-43450000D01*
X142000000Y-47250000D02*
X145750000Y-47250000D01*
X152500000Y-47250000D02*
X150650000Y-47250000D01*
X148500000Y-43250000D02*
X148500000Y-40540000D01*
X148500000Y-45100000D02*
X148500000Y-43250000D01*
X150650000Y-47250000D02*
X148500000Y-45100000D01*
X156750000Y-40540000D02*
X156750000Y-47000000D01*
X162000000Y-47250000D02*
X163750000Y-47250000D01*
X165000000Y-46000000D02*
X165000000Y-40540000D01*
X163750000Y-47250000D02*
X165000000Y-46000000D01*
D30*
X136000000Y-101480000D02*
X130980000Y-101480000D01*
X129730000Y-100230000D02*
X125000000Y-100230000D01*
X130980000Y-101480000D02*
X129730000Y-100230000D01*
X151250000Y-81160000D02*
X156660000Y-81160000D01*
X157910000Y-79910000D02*
X162250000Y-79910000D01*
X156660000Y-81160000D02*
X157910000Y-79910000D01*
D29*
X148290000Y-120040000D02*
X148290000Y-121890000D01*
X148290000Y-119000000D02*
X148290000Y-120040000D01*
X148290000Y-121890000D02*
X149800000Y-123400000D01*
X172200000Y-120700000D02*
X172200000Y-122200000D01*
X172200000Y-119000000D02*
X172200000Y-120700000D01*
X146400000Y-123400000D02*
X138600000Y-115600000D01*
X171000000Y-123400000D02*
X149800000Y-123400000D01*
X149800000Y-123400000D02*
X146400000Y-123400000D01*
X172200000Y-122200000D02*
X171000000Y-123400000D01*
X115000000Y-108500000D02*
X115000000Y-104500000D01*
X137500000Y-114500000D02*
X138600000Y-115600000D01*
X121000000Y-114500000D02*
X137500000Y-114500000D01*
X121000000Y-114500000D02*
X115000000Y-108500000D01*
X120700000Y-119000000D02*
X120700000Y-116900000D01*
X111250000Y-107450000D02*
X111250000Y-104500000D01*
X120700000Y-116900000D02*
X111250000Y-107450000D01*
X132040000Y-116750000D02*
X133450000Y-116750000D01*
X122750000Y-119000000D02*
X124500000Y-117250000D01*
X124500000Y-117250000D02*
X125000000Y-116750000D01*
X125000000Y-116750000D02*
X132040000Y-116750000D01*
X120700000Y-119000000D02*
X122750000Y-119000000D01*
X134290000Y-117590000D02*
X134290000Y-119000000D01*
X133450000Y-116750000D02*
X134290000Y-117590000D01*
X139300000Y-112500000D02*
X143300000Y-112500000D01*
X145750000Y-119000000D02*
X145750000Y-114950000D01*
X145750000Y-114950000D02*
X143300000Y-112500000D01*
X118750000Y-109000000D02*
X122250000Y-112500000D01*
X122250000Y-112500000D02*
X139250000Y-112500000D01*
X118750000Y-104500000D02*
X118750000Y-109000000D01*
X143300000Y-112500000D02*
X164400000Y-112500000D01*
X164400000Y-112500000D02*
X166200000Y-112500000D01*
X166200000Y-112500000D02*
X169660000Y-115960000D01*
X169660000Y-115960000D02*
X169660000Y-119000000D01*
X131750000Y-119000000D02*
X131750000Y-120650000D01*
X118600000Y-120600000D02*
X120100000Y-122100000D01*
X120100000Y-122100000D02*
X128650000Y-122100000D01*
X118160000Y-120060000D02*
X118160000Y-119000000D01*
X118600000Y-120500000D02*
X118160000Y-120060000D01*
X118600000Y-120500000D02*
X118600000Y-120600000D01*
X130300000Y-122100000D02*
X128650000Y-122100000D01*
X131750000Y-120650000D02*
X130300000Y-122100000D01*
X107250000Y-104500000D02*
X107250000Y-111750000D01*
X118160000Y-117660000D02*
X118160000Y-119000000D01*
X116700000Y-116200000D02*
X118160000Y-117660000D01*
X111700000Y-116200000D02*
X116700000Y-116200000D01*
X107250000Y-111750000D02*
X111700000Y-116200000D01*
X96200000Y-78000000D02*
X101100000Y-78000000D01*
X101100000Y-78000000D02*
X102970000Y-79870000D01*
X100200000Y-114100000D02*
X98700000Y-114100000D01*
X109600000Y-123500000D02*
X100200000Y-114100000D01*
X98700000Y-114100000D02*
X98700000Y-104800000D01*
X98700000Y-104800000D02*
X99750000Y-103750000D01*
X99750000Y-103750000D02*
X102000000Y-103750000D01*
X112000000Y-82100000D02*
X112400000Y-79900000D01*
X108000000Y-79900000D02*
X108000000Y-80200000D01*
X108000000Y-80200000D02*
X108800000Y-81000000D01*
X111600000Y-81000000D02*
X112300000Y-82000000D01*
X112300000Y-82000000D02*
X112300000Y-82400000D01*
X106500000Y-82410000D02*
X107990000Y-82410000D01*
X107990000Y-82410000D02*
X108000000Y-82400000D01*
X109600000Y-82400000D02*
X111000000Y-82400000D01*
X112390000Y-82310000D02*
X114120000Y-82410000D01*
X112300000Y-82400000D02*
X112390000Y-82310000D01*
X106500000Y-79870000D02*
X107970000Y-79870000D01*
X112430000Y-79870000D02*
X114120000Y-79870000D01*
X112400000Y-79900000D02*
X112430000Y-79870000D01*
X109600000Y-79900000D02*
X110900000Y-79900000D01*
X107970000Y-79870000D02*
X108000000Y-79900000D01*
X106500000Y-82410000D02*
X106770000Y-82410000D01*
X96200000Y-78000000D02*
X96200000Y-73900000D01*
X109050000Y-50750000D02*
X112000000Y-50750000D01*
X106000000Y-53800000D02*
X109050000Y-50750000D01*
X106000000Y-64100000D02*
X106000000Y-53800000D01*
X96200000Y-73900000D02*
X106000000Y-64100000D01*
X102970000Y-79870000D02*
X106500000Y-79870000D01*
X170300000Y-64900000D02*
X170300000Y-61300000D01*
X94500000Y-114100000D02*
X98700000Y-114100000D01*
X106500000Y-79870000D02*
X106760000Y-79870000D01*
X176250000Y-97960000D02*
X173340000Y-97960000D01*
X165990000Y-105310000D02*
X162250000Y-105310000D01*
X173340000Y-97960000D02*
X165990000Y-105310000D01*
X115790000Y-56400000D02*
X115790000Y-51890000D01*
X115790000Y-51890000D02*
X114650000Y-50750000D01*
X119500000Y-41500000D02*
X119500000Y-49750000D01*
X119500000Y-49750000D02*
X120500000Y-50750000D01*
X115790000Y-56290000D02*
X115790000Y-56400000D01*
X115790000Y-56400000D02*
X115790000Y-60750000D01*
X116750000Y-50750000D02*
X114650000Y-50750000D01*
X114650000Y-50750000D02*
X112000000Y-50750000D01*
X128000000Y-50750000D02*
X120500000Y-50750000D01*
X120500000Y-50750000D02*
X112000000Y-50750000D01*
X106500000Y-82410000D02*
X106500000Y-82130000D01*
X98700000Y-118100000D02*
X97800000Y-118100000D01*
X96000000Y-119900000D02*
X96000000Y-124750000D01*
X97800000Y-118100000D02*
X96000000Y-119900000D01*
X94500000Y-118100000D02*
X98700000Y-118100000D01*
X182000000Y-38750000D02*
X177500000Y-34250000D01*
X185500000Y-45500000D02*
X185500000Y-42250000D01*
X185500000Y-119250000D02*
X185500000Y-45500000D01*
X182000000Y-124750000D02*
X185500000Y-119250000D01*
X185500000Y-42250000D02*
X182000000Y-38750000D01*
X102500000Y-34250000D02*
X96000000Y-38750000D01*
X177500000Y-34250000D02*
X102500000Y-34250000D01*
X96000000Y-124750000D02*
X102250000Y-128000000D01*
X102250000Y-128000000D02*
X178250000Y-128000000D01*
X178250000Y-128000000D02*
X182000000Y-126250000D01*
X182000000Y-126250000D02*
X182000000Y-124750000D01*
X96300000Y-61400000D02*
X96300000Y-65800000D01*
X93700000Y-80000000D02*
X96200000Y-80000000D01*
X91800000Y-78100000D02*
X93700000Y-80000000D01*
X91800000Y-70300000D02*
X91800000Y-78100000D01*
X96300000Y-65800000D02*
X91800000Y-70300000D01*
X170300000Y-72900000D02*
X170300000Y-68900000D01*
D31*
G36*
X114573000Y-82774451D02*
X106123576Y-82871571D01*
X106027737Y-79325557D01*
X114573000Y-79228452D01*
X114573000Y-82774451D01*
X114573000Y-82774451D01*
G37*
X114573000Y-82774451D02*
X106123576Y-82871571D01*
X106027737Y-79325557D01*
X114573000Y-79228452D01*
X114573000Y-82774451D01*
M02*
