G04 #@! TF.FileFunction,Legend,Top*
%FSLAX46Y46*%
G04 Gerber Fmt 4.6, Leading zero omitted, Abs format (unit mm)*
G04 Created by KiCad (PCBNEW 4.0.7) date 02/07/18 15:21:04*
%MOMM*%
%LPD*%
G01*
G04 APERTURE LIST*
%ADD10C,0.100000*%
%ADD11C,0.500000*%
%ADD12C,0.200000*%
%ADD13C,0.400000*%
%ADD14C,1.000000*%
%ADD15C,0.125000*%
%ADD16C,0.300000*%
%ADD17C,0.152400*%
%ADD18C,0.150000*%
%ADD19C,0.120000*%
G04 APERTURE END LIST*
D10*
D11*
X162900000Y-63900000D02*
X162900000Y-63600000D01*
X144700000Y-63900000D02*
X162900000Y-63900000D01*
X144700000Y-59900000D02*
X144700000Y-63900000D01*
X162900000Y-59900000D02*
X144700000Y-59900000D01*
X162900000Y-59900000D02*
X162900000Y-63900000D01*
X162700000Y-60000000D02*
X162700000Y-63900000D01*
X145000000Y-60400000D02*
X145000000Y-60600000D01*
X162800000Y-60400000D02*
X145000000Y-60400000D01*
X144700000Y-60900000D02*
X144700000Y-63900000D01*
X144700000Y-60100000D02*
X144700000Y-60900000D01*
X162500000Y-60100000D02*
X144700000Y-60100000D01*
X162500000Y-60700000D02*
X162500000Y-60100000D01*
X144900000Y-60700000D02*
X162500000Y-60700000D01*
X162100000Y-63600000D02*
X162200000Y-63600000D01*
X162100000Y-63100000D02*
X162100000Y-63600000D01*
X144900000Y-63500000D02*
X161800000Y-63500000D01*
X144900000Y-60900000D02*
X144900000Y-63500000D01*
X162600000Y-60900000D02*
X144900000Y-60900000D01*
X162600000Y-63900000D02*
X162600000Y-60900000D01*
X144800000Y-63900000D02*
X162600000Y-63900000D01*
X144800000Y-60900000D02*
X144800000Y-63900000D01*
D12*
X161400000Y-62200000D02*
X145900000Y-62200000D01*
X161400000Y-62000000D02*
X161400000Y-62200000D01*
X145800000Y-62000000D02*
X161400000Y-62000000D01*
X145800000Y-62300000D02*
X145800000Y-62000000D01*
D13*
X161500000Y-62300000D02*
X145800000Y-62300000D01*
D12*
X161500000Y-61900000D02*
X161500000Y-62300000D01*
X145700000Y-61900000D02*
X161500000Y-61900000D01*
X145700000Y-62400000D02*
X145700000Y-61900000D01*
X161600000Y-62400000D02*
X145700000Y-62400000D01*
X161600000Y-61800000D02*
X161600000Y-62400000D01*
X145600000Y-61800000D02*
X161600000Y-61800000D01*
X145600000Y-62500000D02*
X145600000Y-61800000D01*
D14*
X161700000Y-62500000D02*
X145600000Y-62500000D01*
D12*
X161700000Y-61700000D02*
X161700000Y-62500000D01*
X145500000Y-61700000D02*
X161700000Y-61700000D01*
X145500000Y-62600000D02*
X145500000Y-61700000D01*
X161700000Y-62600000D02*
X145500000Y-62600000D01*
X161800000Y-62700000D02*
X161700000Y-62600000D01*
X161800000Y-62500000D02*
X161800000Y-62700000D01*
X161800000Y-61600000D02*
X161800000Y-62500000D01*
X145400000Y-61600000D02*
X161800000Y-61600000D01*
X145400000Y-62700000D02*
X145400000Y-61600000D01*
X161900000Y-62700000D02*
X145400000Y-62700000D01*
X161900000Y-61500000D02*
X161900000Y-62700000D01*
X145300000Y-61500000D02*
X161900000Y-61500000D01*
X145300000Y-62800000D02*
X145300000Y-61500000D01*
X162000000Y-62800000D02*
X145300000Y-62800000D01*
X162000000Y-61400000D02*
X162000000Y-62800000D01*
X145200000Y-61400000D02*
X162000000Y-61400000D01*
X145200000Y-62900000D02*
X145200000Y-61400000D01*
X162100000Y-62900000D02*
X145200000Y-62900000D01*
X162100000Y-61300000D02*
X162100000Y-62900000D01*
X145100000Y-61300000D02*
X162100000Y-61300000D01*
X145100000Y-63000000D02*
X145100000Y-61300000D01*
X162200000Y-63000000D02*
X145100000Y-63000000D01*
X162200000Y-61200000D02*
X162200000Y-63000000D01*
X145100000Y-61200000D02*
X162200000Y-61200000D01*
X144900000Y-63200000D02*
X144900000Y-62900000D01*
X144900000Y-61000000D02*
X144900000Y-63200000D01*
X145000000Y-63100000D02*
X145000000Y-61100000D01*
X162300000Y-63100000D02*
X145000000Y-63100000D01*
X162300000Y-61100000D02*
X162300000Y-63100000D01*
X145000000Y-61100000D02*
X162300000Y-61100000D01*
X144800000Y-60900000D02*
X145400000Y-60900000D01*
X144800000Y-63300000D02*
X144800000Y-60900000D01*
X162600000Y-63300000D02*
X144800000Y-63300000D01*
X162600000Y-60900000D02*
X162600000Y-63300000D01*
X145400000Y-60900000D02*
X162600000Y-60900000D01*
X158428571Y-96988096D02*
X158428571Y-95845239D01*
X159928571Y-96416667D02*
X158428571Y-96416667D01*
X159142857Y-95178572D02*
X159142857Y-94511905D01*
X159928571Y-94226191D02*
X159928571Y-95178572D01*
X158428571Y-95178572D01*
X158428571Y-94226191D01*
X159857143Y-93464286D02*
X159928571Y-93178571D01*
X159928571Y-92702381D01*
X159857143Y-92511905D01*
X159785714Y-92416667D01*
X159642857Y-92321428D01*
X159500000Y-92321428D01*
X159357143Y-92416667D01*
X159285714Y-92511905D01*
X159214286Y-92702381D01*
X159142857Y-93083333D01*
X159071429Y-93273809D01*
X159000000Y-93369048D01*
X158857143Y-93464286D01*
X158714286Y-93464286D01*
X158571429Y-93369048D01*
X158500000Y-93273809D01*
X158428571Y-93083333D01*
X158428571Y-92607143D01*
X158500000Y-92321428D01*
X158428571Y-91750000D02*
X158428571Y-90607143D01*
X159928571Y-91178571D02*
X158428571Y-91178571D01*
X159928571Y-88416666D02*
X158428571Y-88416666D01*
X158428571Y-87654761D01*
X158500000Y-87464285D01*
X158571429Y-87369046D01*
X158714286Y-87273808D01*
X158928571Y-87273808D01*
X159071429Y-87369046D01*
X159142857Y-87464285D01*
X159214286Y-87654761D01*
X159214286Y-88416666D01*
X158428571Y-86035713D02*
X158428571Y-85654761D01*
X158500000Y-85464285D01*
X158642857Y-85273808D01*
X158928571Y-85178570D01*
X159428571Y-85178570D01*
X159714286Y-85273808D01*
X159857143Y-85464285D01*
X159928571Y-85654761D01*
X159928571Y-86035713D01*
X159857143Y-86226189D01*
X159714286Y-86416666D01*
X159428571Y-86511904D01*
X158928571Y-86511904D01*
X158642857Y-86416666D01*
X158500000Y-86226189D01*
X158428571Y-86035713D01*
X159928571Y-84321428D02*
X158428571Y-84321428D01*
X159928571Y-83369047D02*
X158428571Y-83369047D01*
X159928571Y-82226189D01*
X158428571Y-82226189D01*
X158428571Y-81559523D02*
X158428571Y-80416666D01*
X159928571Y-80988094D02*
X158428571Y-80988094D01*
X159857143Y-79845237D02*
X159928571Y-79559522D01*
X159928571Y-79083332D01*
X159857143Y-78892856D01*
X159785714Y-78797618D01*
X159642857Y-78702379D01*
X159500000Y-78702379D01*
X159357143Y-78797618D01*
X159285714Y-78892856D01*
X159214286Y-79083332D01*
X159142857Y-79464284D01*
X159071429Y-79654760D01*
X159000000Y-79749999D01*
X158857143Y-79845237D01*
X158714286Y-79845237D01*
X158571429Y-79749999D01*
X158500000Y-79654760D01*
X158428571Y-79464284D01*
X158428571Y-78988094D01*
X158500000Y-78702379D01*
X127428571Y-97238096D02*
X127428571Y-96095239D01*
X128928571Y-96666667D02*
X127428571Y-96666667D01*
X128142857Y-95428572D02*
X128142857Y-94761905D01*
X128928571Y-94476191D02*
X128928571Y-95428572D01*
X127428571Y-95428572D01*
X127428571Y-94476191D01*
X128857143Y-93714286D02*
X128928571Y-93428571D01*
X128928571Y-92952381D01*
X128857143Y-92761905D01*
X128785714Y-92666667D01*
X128642857Y-92571428D01*
X128500000Y-92571428D01*
X128357143Y-92666667D01*
X128285714Y-92761905D01*
X128214286Y-92952381D01*
X128142857Y-93333333D01*
X128071429Y-93523809D01*
X128000000Y-93619048D01*
X127857143Y-93714286D01*
X127714286Y-93714286D01*
X127571429Y-93619048D01*
X127500000Y-93523809D01*
X127428571Y-93333333D01*
X127428571Y-92857143D01*
X127500000Y-92571428D01*
X127428571Y-92000000D02*
X127428571Y-90857143D01*
X128928571Y-91428571D02*
X127428571Y-91428571D01*
X128928571Y-88666666D02*
X127428571Y-88666666D01*
X127428571Y-87904761D01*
X127500000Y-87714285D01*
X127571429Y-87619046D01*
X127714286Y-87523808D01*
X127928571Y-87523808D01*
X128071429Y-87619046D01*
X128142857Y-87714285D01*
X128214286Y-87904761D01*
X128214286Y-88666666D01*
X127428571Y-86285713D02*
X127428571Y-85904761D01*
X127500000Y-85714285D01*
X127642857Y-85523808D01*
X127928571Y-85428570D01*
X128428571Y-85428570D01*
X128714286Y-85523808D01*
X128857143Y-85714285D01*
X128928571Y-85904761D01*
X128928571Y-86285713D01*
X128857143Y-86476189D01*
X128714286Y-86666666D01*
X128428571Y-86761904D01*
X127928571Y-86761904D01*
X127642857Y-86666666D01*
X127500000Y-86476189D01*
X127428571Y-86285713D01*
X128928571Y-84571428D02*
X127428571Y-84571428D01*
X128928571Y-83619047D02*
X127428571Y-83619047D01*
X128928571Y-82476189D01*
X127428571Y-82476189D01*
X127428571Y-81809523D02*
X127428571Y-80666666D01*
X128928571Y-81238094D02*
X127428571Y-81238094D01*
X128857143Y-80095237D02*
X128928571Y-79809522D01*
X128928571Y-79333332D01*
X128857143Y-79142856D01*
X128785714Y-79047618D01*
X128642857Y-78952379D01*
X128500000Y-78952379D01*
X128357143Y-79047618D01*
X128285714Y-79142856D01*
X128214286Y-79333332D01*
X128142857Y-79714284D01*
X128071429Y-79904760D01*
X128000000Y-79999999D01*
X127857143Y-80095237D01*
X127714286Y-80095237D01*
X127571429Y-79999999D01*
X127500000Y-79904760D01*
X127428571Y-79714284D01*
X127428571Y-79238094D01*
X127500000Y-78952379D01*
D15*
X164154762Y-105288690D02*
X163869048Y-105288690D01*
X164011905Y-105288690D02*
X164011905Y-104788690D01*
X163964286Y-104860119D01*
X163916667Y-104907738D01*
X163869048Y-104931548D01*
X164607143Y-104788690D02*
X164369048Y-104788690D01*
X164345238Y-105026786D01*
X164369048Y-105002976D01*
X164416667Y-104979167D01*
X164535714Y-104979167D01*
X164583333Y-105002976D01*
X164607143Y-105026786D01*
X164630952Y-105074405D01*
X164630952Y-105193452D01*
X164607143Y-105241071D01*
X164583333Y-105264881D01*
X164535714Y-105288690D01*
X164416667Y-105288690D01*
X164369048Y-105264881D01*
X164345238Y-105241071D01*
X164154762Y-92726190D02*
X163869048Y-92726190D01*
X164011905Y-92726190D02*
X164011905Y-92226190D01*
X163964286Y-92297619D01*
X163916667Y-92345238D01*
X163869048Y-92369048D01*
X164464286Y-92226190D02*
X164511905Y-92226190D01*
X164559524Y-92250000D01*
X164583333Y-92273810D01*
X164607143Y-92321429D01*
X164630952Y-92416667D01*
X164630952Y-92535714D01*
X164607143Y-92630952D01*
X164583333Y-92678571D01*
X164559524Y-92702381D01*
X164511905Y-92726190D01*
X164464286Y-92726190D01*
X164416667Y-92702381D01*
X164392857Y-92678571D01*
X164369048Y-92630952D01*
X164345238Y-92535714D01*
X164345238Y-92416667D01*
X164369048Y-92321429D01*
X164392857Y-92273810D01*
X164416667Y-92250000D01*
X164464286Y-92226190D01*
X164369048Y-79726190D02*
X164130953Y-79726190D01*
X164107143Y-79964286D01*
X164130953Y-79940476D01*
X164178572Y-79916667D01*
X164297619Y-79916667D01*
X164345238Y-79940476D01*
X164369048Y-79964286D01*
X164392857Y-80011905D01*
X164392857Y-80130952D01*
X164369048Y-80178571D01*
X164345238Y-80202381D01*
X164297619Y-80226190D01*
X164178572Y-80226190D01*
X164130953Y-80202381D01*
X164107143Y-80178571D01*
X122904762Y-105288690D02*
X122619048Y-105288690D01*
X122761905Y-105288690D02*
X122761905Y-104788690D01*
X122714286Y-104860119D01*
X122666667Y-104907738D01*
X122619048Y-104931548D01*
X123357143Y-104788690D02*
X123119048Y-104788690D01*
X123095238Y-105026786D01*
X123119048Y-105002976D01*
X123166667Y-104979167D01*
X123285714Y-104979167D01*
X123333333Y-105002976D01*
X123357143Y-105026786D01*
X123380952Y-105074405D01*
X123380952Y-105193452D01*
X123357143Y-105241071D01*
X123333333Y-105264881D01*
X123285714Y-105288690D01*
X123166667Y-105288690D01*
X123119048Y-105264881D01*
X123095238Y-105241071D01*
X122904762Y-92976190D02*
X122619048Y-92976190D01*
X122761905Y-92976190D02*
X122761905Y-92476190D01*
X122714286Y-92547619D01*
X122666667Y-92595238D01*
X122619048Y-92619048D01*
X123214286Y-92476190D02*
X123261905Y-92476190D01*
X123309524Y-92500000D01*
X123333333Y-92523810D01*
X123357143Y-92571429D01*
X123380952Y-92666667D01*
X123380952Y-92785714D01*
X123357143Y-92880952D01*
X123333333Y-92928571D01*
X123309524Y-92952381D01*
X123261905Y-92976190D01*
X123214286Y-92976190D01*
X123166667Y-92952381D01*
X123142857Y-92928571D01*
X123119048Y-92880952D01*
X123095238Y-92785714D01*
X123095238Y-92666667D01*
X123119048Y-92571429D01*
X123142857Y-92523810D01*
X123166667Y-92500000D01*
X123214286Y-92476190D01*
X123119048Y-79476190D02*
X122880953Y-79476190D01*
X122857143Y-79714286D01*
X122880953Y-79690476D01*
X122928572Y-79666667D01*
X123047619Y-79666667D01*
X123095238Y-79690476D01*
X123119048Y-79714286D01*
X123142857Y-79761905D01*
X123142857Y-79880952D01*
X123119048Y-79928571D01*
X123095238Y-79952381D01*
X123047619Y-79976190D01*
X122928572Y-79976190D01*
X122880953Y-79952381D01*
X122857143Y-79928571D01*
D10*
X104750000Y-72750000D02*
X105250000Y-72750000D01*
D15*
X104904762Y-72476190D02*
X105000000Y-72476190D01*
X105047619Y-72452381D01*
X105071429Y-72428571D01*
X105119048Y-72357143D01*
X105142857Y-72261905D01*
X105142857Y-72071429D01*
X105119048Y-72023810D01*
X105095238Y-72000000D01*
X105047619Y-71976190D01*
X104952381Y-71976190D01*
X104904762Y-72000000D01*
X104880953Y-72023810D01*
X104857143Y-72071429D01*
X104857143Y-72190476D01*
X104880953Y-72238095D01*
X104904762Y-72261905D01*
X104952381Y-72285714D01*
X105047619Y-72285714D01*
X105095238Y-72261905D01*
X105119048Y-72238095D01*
X105142857Y-72190476D01*
D16*
X94007143Y-75371428D02*
X94007143Y-74228571D01*
X93928572Y-83207143D02*
X95071429Y-83207143D01*
X94500000Y-83778571D02*
X94500000Y-82635714D01*
X133871429Y-56100000D02*
X134585715Y-56100000D01*
X133728572Y-56528571D02*
X134228572Y-55028571D01*
X134728572Y-56528571D01*
X135157143Y-56457143D02*
X135371429Y-56528571D01*
X135728572Y-56528571D01*
X135871429Y-56457143D01*
X135942858Y-56385714D01*
X136014286Y-56242857D01*
X136014286Y-56100000D01*
X135942858Y-55957143D01*
X135871429Y-55885714D01*
X135728572Y-55814286D01*
X135442858Y-55742857D01*
X135300000Y-55671429D01*
X135228572Y-55600000D01*
X135157143Y-55457143D01*
X135157143Y-55314286D01*
X135228572Y-55171429D01*
X135300000Y-55100000D01*
X135442858Y-55028571D01*
X135800000Y-55028571D01*
X136014286Y-55100000D01*
X136585714Y-56100000D02*
X137300000Y-56100000D01*
X136442857Y-56528571D02*
X136942857Y-55028571D01*
X137442857Y-56528571D01*
X138800000Y-56528571D02*
X138300000Y-55814286D01*
X137942857Y-56528571D02*
X137942857Y-55028571D01*
X138514285Y-55028571D01*
X138657143Y-55100000D01*
X138728571Y-55171429D01*
X138800000Y-55314286D01*
X138800000Y-55528571D01*
X138728571Y-55671429D01*
X138657143Y-55742857D01*
X138514285Y-55814286D01*
X137942857Y-55814286D01*
X141442857Y-56528571D02*
X140942857Y-55814286D01*
X140585714Y-56528571D02*
X140585714Y-55028571D01*
X141157142Y-55028571D01*
X141300000Y-55100000D01*
X141371428Y-55171429D01*
X141442857Y-55314286D01*
X141442857Y-55528571D01*
X141371428Y-55671429D01*
X141300000Y-55742857D01*
X141157142Y-55814286D01*
X140585714Y-55814286D01*
X142371428Y-55028571D02*
X142657142Y-55028571D01*
X142800000Y-55100000D01*
X142942857Y-55242857D01*
X143014285Y-55528571D01*
X143014285Y-56028571D01*
X142942857Y-56314286D01*
X142800000Y-56457143D01*
X142657142Y-56528571D01*
X142371428Y-56528571D01*
X142228571Y-56457143D01*
X142085714Y-56314286D01*
X142014285Y-56028571D01*
X142014285Y-55528571D01*
X142085714Y-55242857D01*
X142228571Y-55100000D01*
X142371428Y-55028571D01*
X144157143Y-55742857D02*
X144371429Y-55814286D01*
X144442857Y-55885714D01*
X144514286Y-56028571D01*
X144514286Y-56242857D01*
X144442857Y-56385714D01*
X144371429Y-56457143D01*
X144228571Y-56528571D01*
X143657143Y-56528571D01*
X143657143Y-55028571D01*
X144157143Y-55028571D01*
X144300000Y-55100000D01*
X144371429Y-55171429D01*
X144442857Y-55314286D01*
X144442857Y-55457143D01*
X144371429Y-55600000D01*
X144300000Y-55671429D01*
X144157143Y-55742857D01*
X143657143Y-55742857D01*
X145442857Y-55028571D02*
X145728571Y-55028571D01*
X145871429Y-55100000D01*
X146014286Y-55242857D01*
X146085714Y-55528571D01*
X146085714Y-56028571D01*
X146014286Y-56314286D01*
X145871429Y-56457143D01*
X145728571Y-56528571D01*
X145442857Y-56528571D01*
X145300000Y-56457143D01*
X145157143Y-56314286D01*
X145085714Y-56028571D01*
X145085714Y-55528571D01*
X145157143Y-55242857D01*
X145300000Y-55100000D01*
X145442857Y-55028571D01*
X146514286Y-55028571D02*
X147371429Y-55028571D01*
X146942858Y-56528571D02*
X146942858Y-55028571D01*
X149014286Y-56528571D02*
X149014286Y-55028571D01*
X149728572Y-56528571D02*
X149728572Y-55028571D01*
X150585715Y-56528571D01*
X150585715Y-55028571D01*
X151085715Y-55028571D02*
X151942858Y-55028571D01*
X151514287Y-56528571D02*
X151514287Y-55028571D01*
X152442858Y-55742857D02*
X152942858Y-55742857D01*
X153157144Y-56528571D02*
X152442858Y-56528571D01*
X152442858Y-55028571D01*
X153157144Y-55028571D01*
X154657144Y-56528571D02*
X154157144Y-55814286D01*
X153800001Y-56528571D02*
X153800001Y-55028571D01*
X154371429Y-55028571D01*
X154514287Y-55100000D01*
X154585715Y-55171429D01*
X154657144Y-55314286D01*
X154657144Y-55528571D01*
X154585715Y-55671429D01*
X154514287Y-55742857D01*
X154371429Y-55814286D01*
X153800001Y-55814286D01*
X155800001Y-55742857D02*
X155300001Y-55742857D01*
X155300001Y-56528571D02*
X155300001Y-55028571D01*
X156014287Y-55028571D01*
X156514286Y-56100000D02*
X157228572Y-56100000D01*
X156371429Y-56528571D02*
X156871429Y-55028571D01*
X157371429Y-56528571D01*
X158728572Y-56385714D02*
X158657143Y-56457143D01*
X158442857Y-56528571D01*
X158300000Y-56528571D01*
X158085715Y-56457143D01*
X157942857Y-56314286D01*
X157871429Y-56171429D01*
X157800000Y-55885714D01*
X157800000Y-55671429D01*
X157871429Y-55385714D01*
X157942857Y-55242857D01*
X158085715Y-55100000D01*
X158300000Y-55028571D01*
X158442857Y-55028571D01*
X158657143Y-55100000D01*
X158728572Y-55171429D01*
X159371429Y-55742857D02*
X159871429Y-55742857D01*
X160085715Y-56528571D02*
X159371429Y-56528571D01*
X159371429Y-55028571D01*
X160085715Y-55028571D01*
X161871429Y-56528571D02*
X161871429Y-55028571D01*
X162442857Y-55028571D01*
X162585715Y-55100000D01*
X162657143Y-55171429D01*
X162728572Y-55314286D01*
X162728572Y-55528571D01*
X162657143Y-55671429D01*
X162585715Y-55742857D01*
X162442857Y-55814286D01*
X161871429Y-55814286D01*
X164228572Y-56385714D02*
X164157143Y-56457143D01*
X163942857Y-56528571D01*
X163800000Y-56528571D01*
X163585715Y-56457143D01*
X163442857Y-56314286D01*
X163371429Y-56171429D01*
X163300000Y-55885714D01*
X163300000Y-55671429D01*
X163371429Y-55385714D01*
X163442857Y-55242857D01*
X163585715Y-55100000D01*
X163800000Y-55028571D01*
X163942857Y-55028571D01*
X164157143Y-55100000D01*
X164228572Y-55171429D01*
X165371429Y-55742857D02*
X165585715Y-55814286D01*
X165657143Y-55885714D01*
X165728572Y-56028571D01*
X165728572Y-56242857D01*
X165657143Y-56385714D01*
X165585715Y-56457143D01*
X165442857Y-56528571D01*
X164871429Y-56528571D01*
X164871429Y-55028571D01*
X165371429Y-55028571D01*
X165514286Y-55100000D01*
X165585715Y-55171429D01*
X165657143Y-55314286D01*
X165657143Y-55457143D01*
X165585715Y-55600000D01*
X165514286Y-55671429D01*
X165371429Y-55742857D01*
X164871429Y-55742857D01*
X138121431Y-59078571D02*
X137621431Y-58364286D01*
X137264288Y-59078571D02*
X137264288Y-57578571D01*
X137835716Y-57578571D01*
X137978574Y-57650000D01*
X138050002Y-57721429D01*
X138121431Y-57864286D01*
X138121431Y-58078571D01*
X138050002Y-58221429D01*
X137978574Y-58292857D01*
X137835716Y-58364286D01*
X137264288Y-58364286D01*
X138764288Y-59078571D02*
X138764288Y-57578571D01*
X139264288Y-57578571D02*
X140121431Y-57578571D01*
X139692860Y-59078571D02*
X139692860Y-57578571D01*
X141764288Y-59078571D02*
X141764288Y-57578571D01*
X142264288Y-58650000D01*
X142764288Y-57578571D01*
X142764288Y-59078571D01*
X143407145Y-59007143D02*
X143621431Y-59078571D01*
X143978574Y-59078571D01*
X144121431Y-59007143D01*
X144192860Y-58935714D01*
X144264288Y-58792857D01*
X144264288Y-58650000D01*
X144192860Y-58507143D01*
X144121431Y-58435714D01*
X143978574Y-58364286D01*
X143692860Y-58292857D01*
X143550002Y-58221429D01*
X143478574Y-58150000D01*
X143407145Y-58007143D01*
X143407145Y-57864286D01*
X143478574Y-57721429D01*
X143550002Y-57650000D01*
X143692860Y-57578571D01*
X144050002Y-57578571D01*
X144264288Y-57650000D01*
X144907145Y-59078571D02*
X144907145Y-57578571D01*
X145264288Y-57578571D01*
X145478573Y-57650000D01*
X145621431Y-57792857D01*
X145692859Y-57935714D01*
X145764288Y-58221429D01*
X145764288Y-58435714D01*
X145692859Y-58721429D01*
X145621431Y-58864286D01*
X145478573Y-59007143D01*
X145264288Y-59078571D01*
X144907145Y-59078571D01*
X147478573Y-57721429D02*
X147550002Y-57650000D01*
X147692859Y-57578571D01*
X148050002Y-57578571D01*
X148192859Y-57650000D01*
X148264288Y-57721429D01*
X148335716Y-57864286D01*
X148335716Y-58007143D01*
X148264288Y-58221429D01*
X147407145Y-59078571D01*
X148335716Y-59078571D01*
X149264287Y-57578571D02*
X149407144Y-57578571D01*
X149550001Y-57650000D01*
X149621430Y-57721429D01*
X149692859Y-57864286D01*
X149764287Y-58150000D01*
X149764287Y-58507143D01*
X149692859Y-58792857D01*
X149621430Y-58935714D01*
X149550001Y-59007143D01*
X149407144Y-59078571D01*
X149264287Y-59078571D01*
X149121430Y-59007143D01*
X149050001Y-58935714D01*
X148978573Y-58792857D01*
X148907144Y-58507143D01*
X148907144Y-58150000D01*
X148978573Y-57864286D01*
X149050001Y-57721429D01*
X149121430Y-57650000D01*
X149264287Y-57578571D01*
X151192858Y-59078571D02*
X150335715Y-59078571D01*
X150764287Y-59078571D02*
X150764287Y-57578571D01*
X150621430Y-57792857D01*
X150478572Y-57935714D01*
X150335715Y-58007143D01*
X152050001Y-58221429D02*
X151907143Y-58150000D01*
X151835715Y-58078571D01*
X151764286Y-57935714D01*
X151764286Y-57864286D01*
X151835715Y-57721429D01*
X151907143Y-57650000D01*
X152050001Y-57578571D01*
X152335715Y-57578571D01*
X152478572Y-57650000D01*
X152550001Y-57721429D01*
X152621429Y-57864286D01*
X152621429Y-57935714D01*
X152550001Y-58078571D01*
X152478572Y-58150000D01*
X152335715Y-58221429D01*
X152050001Y-58221429D01*
X151907143Y-58292857D01*
X151835715Y-58364286D01*
X151764286Y-58507143D01*
X151764286Y-58792857D01*
X151835715Y-58935714D01*
X151907143Y-59007143D01*
X152050001Y-59078571D01*
X152335715Y-59078571D01*
X152478572Y-59007143D01*
X152550001Y-58935714D01*
X152621429Y-58792857D01*
X152621429Y-58507143D01*
X152550001Y-58364286D01*
X152478572Y-58292857D01*
X152335715Y-58221429D01*
X154407143Y-59078571D02*
X154407143Y-57578571D01*
X154978571Y-57578571D01*
X155121429Y-57650000D01*
X155192857Y-57721429D01*
X155264286Y-57864286D01*
X155264286Y-58078571D01*
X155192857Y-58221429D01*
X155121429Y-58292857D01*
X154978571Y-58364286D01*
X154407143Y-58364286D01*
X156692857Y-59078571D02*
X155835714Y-59078571D01*
X156264286Y-59078571D02*
X156264286Y-57578571D01*
X156121429Y-57792857D01*
X155978571Y-57935714D01*
X155835714Y-58007143D01*
X157550000Y-58221429D02*
X157407142Y-58150000D01*
X157335714Y-58078571D01*
X157264285Y-57935714D01*
X157264285Y-57864286D01*
X157335714Y-57721429D01*
X157407142Y-57650000D01*
X157550000Y-57578571D01*
X157835714Y-57578571D01*
X157978571Y-57650000D01*
X158050000Y-57721429D01*
X158121428Y-57864286D01*
X158121428Y-57935714D01*
X158050000Y-58078571D01*
X157978571Y-58150000D01*
X157835714Y-58221429D01*
X157550000Y-58221429D01*
X157407142Y-58292857D01*
X157335714Y-58364286D01*
X157264285Y-58507143D01*
X157264285Y-58792857D01*
X157335714Y-58935714D01*
X157407142Y-59007143D01*
X157550000Y-59078571D01*
X157835714Y-59078571D01*
X157978571Y-59007143D01*
X158050000Y-58935714D01*
X158121428Y-58792857D01*
X158121428Y-58507143D01*
X158050000Y-58364286D01*
X157978571Y-58292857D01*
X157835714Y-58221429D01*
X159478571Y-57578571D02*
X158764285Y-57578571D01*
X158692856Y-58292857D01*
X158764285Y-58221429D01*
X158907142Y-58150000D01*
X159264285Y-58150000D01*
X159407142Y-58221429D01*
X159478571Y-58292857D01*
X159549999Y-58435714D01*
X159549999Y-58792857D01*
X159478571Y-58935714D01*
X159407142Y-59007143D01*
X159264285Y-59078571D01*
X158907142Y-59078571D01*
X158764285Y-59007143D01*
X158692856Y-58935714D01*
X160835713Y-58078571D02*
X160835713Y-59078571D01*
X160478570Y-57507143D02*
X160121427Y-58578571D01*
X161049999Y-58578571D01*
X161549998Y-57721429D02*
X161621427Y-57650000D01*
X161764284Y-57578571D01*
X162121427Y-57578571D01*
X162264284Y-57650000D01*
X162335713Y-57721429D01*
X162407141Y-57864286D01*
X162407141Y-58007143D01*
X162335713Y-58221429D01*
X161478570Y-59078571D01*
X162407141Y-59078571D01*
X137800002Y-61628571D02*
X137300002Y-60914286D01*
X136942859Y-61628571D02*
X136942859Y-60128571D01*
X137514287Y-60128571D01*
X137657145Y-60200000D01*
X137728573Y-60271429D01*
X137800002Y-60414286D01*
X137800002Y-60628571D01*
X137728573Y-60771429D01*
X137657145Y-60842857D01*
X137514287Y-60914286D01*
X136942859Y-60914286D01*
X138442859Y-60842857D02*
X138942859Y-60842857D01*
X139157145Y-61628571D02*
X138442859Y-61628571D01*
X138442859Y-60128571D01*
X139157145Y-60128571D01*
X139585716Y-60128571D02*
X140085716Y-61628571D01*
X140585716Y-60128571D01*
X143014287Y-61628571D02*
X142157144Y-61628571D01*
X142585716Y-61628571D02*
X142585716Y-60128571D01*
X142442859Y-60342857D01*
X142300001Y-60485714D01*
X142157144Y-60557143D01*
X162299999Y-62128571D02*
X162299999Y-59985714D01*
D12*
X146750000Y-68000000D02*
X146750000Y-70750000D01*
X141000000Y-68000000D02*
X141000000Y-70750000D01*
X141000000Y-70750000D02*
X146750000Y-70750000D01*
X141500000Y-68000000D02*
X141000000Y-68500000D01*
X146250000Y-68000000D02*
X141500000Y-68000000D01*
X146750000Y-68500000D02*
X146250000Y-68000000D01*
D16*
X141857143Y-68678571D02*
X141857143Y-69892857D01*
X141928571Y-70035714D01*
X142000000Y-70107143D01*
X142142857Y-70178571D01*
X142428571Y-70178571D01*
X142571429Y-70107143D01*
X142642857Y-70035714D01*
X142714286Y-69892857D01*
X142714286Y-68678571D01*
X143357143Y-70107143D02*
X143571429Y-70178571D01*
X143928572Y-70178571D01*
X144071429Y-70107143D01*
X144142858Y-70035714D01*
X144214286Y-69892857D01*
X144214286Y-69750000D01*
X144142858Y-69607143D01*
X144071429Y-69535714D01*
X143928572Y-69464286D01*
X143642858Y-69392857D01*
X143500000Y-69321429D01*
X143428572Y-69250000D01*
X143357143Y-69107143D01*
X143357143Y-68964286D01*
X143428572Y-68821429D01*
X143500000Y-68750000D01*
X143642858Y-68678571D01*
X144000000Y-68678571D01*
X144214286Y-68750000D01*
X145357143Y-69392857D02*
X145571429Y-69464286D01*
X145642857Y-69535714D01*
X145714286Y-69678571D01*
X145714286Y-69892857D01*
X145642857Y-70035714D01*
X145571429Y-70107143D01*
X145428571Y-70178571D01*
X144857143Y-70178571D01*
X144857143Y-68678571D01*
X145357143Y-68678571D01*
X145500000Y-68750000D01*
X145571429Y-68821429D01*
X145642857Y-68964286D01*
X145642857Y-69107143D01*
X145571429Y-69250000D01*
X145500000Y-69321429D01*
X145357143Y-69392857D01*
X144857143Y-69392857D01*
D12*
X146750000Y-68000000D02*
X141000000Y-68000000D01*
X137750000Y-105750000D02*
X137750000Y-69250000D01*
X149500000Y-105750000D02*
X137750000Y-105750000D01*
X149500000Y-69250000D02*
X149500000Y-105750000D01*
X137750000Y-69250000D02*
X149500000Y-69250000D01*
D16*
X117992858Y-62878571D02*
X118992858Y-64378571D01*
X118992858Y-62878571D02*
X117992858Y-64378571D01*
X120064286Y-63592857D02*
X120278572Y-63664286D01*
X120350000Y-63735714D01*
X120421429Y-63878571D01*
X120421429Y-64092857D01*
X120350000Y-64235714D01*
X120278572Y-64307143D01*
X120135714Y-64378571D01*
X119564286Y-64378571D01*
X119564286Y-62878571D01*
X120064286Y-62878571D01*
X120207143Y-62950000D01*
X120278572Y-63021429D01*
X120350000Y-63164286D01*
X120350000Y-63307143D01*
X120278572Y-63450000D01*
X120207143Y-63521429D01*
X120064286Y-63592857D01*
X119564286Y-63592857D01*
X121064286Y-63592857D02*
X121564286Y-63592857D01*
X121778572Y-64378571D02*
X121064286Y-64378571D01*
X121064286Y-62878571D01*
X121778572Y-62878571D01*
X122421429Y-63592857D02*
X122921429Y-63592857D01*
X123135715Y-64378571D02*
X122421429Y-64378571D01*
X122421429Y-62878571D01*
X123135715Y-62878571D01*
D12*
X162761905Y-43702381D02*
X162761905Y-42702381D01*
X163000000Y-42702381D01*
X163142858Y-42750000D01*
X163238096Y-42845238D01*
X163285715Y-42940476D01*
X163333334Y-43130952D01*
X163333334Y-43273810D01*
X163285715Y-43464286D01*
X163238096Y-43559524D01*
X163142858Y-43654762D01*
X163000000Y-43702381D01*
X162761905Y-43702381D01*
X163761905Y-43178571D02*
X164095239Y-43178571D01*
X164238096Y-43702381D02*
X163761905Y-43702381D01*
X163761905Y-42702381D01*
X164238096Y-42702381D01*
X165000001Y-43178571D02*
X165142858Y-43226190D01*
X165190477Y-43273810D01*
X165238096Y-43369048D01*
X165238096Y-43511905D01*
X165190477Y-43607143D01*
X165142858Y-43654762D01*
X165047620Y-43702381D01*
X164666667Y-43702381D01*
X164666667Y-42702381D01*
X165000001Y-42702381D01*
X165095239Y-42750000D01*
X165142858Y-42797619D01*
X165190477Y-42892857D01*
X165190477Y-42988095D01*
X165142858Y-43083333D01*
X165095239Y-43130952D01*
X165000001Y-43178571D01*
X164666667Y-43178571D01*
X165666667Y-42702381D02*
X165666667Y-43511905D01*
X165714286Y-43607143D01*
X165761905Y-43654762D01*
X165857143Y-43702381D01*
X166047620Y-43702381D01*
X166142858Y-43654762D01*
X166190477Y-43607143D01*
X166238096Y-43511905D01*
X166238096Y-42702381D01*
X167238096Y-42750000D02*
X167142858Y-42702381D01*
X167000001Y-42702381D01*
X166857143Y-42750000D01*
X166761905Y-42845238D01*
X166714286Y-42940476D01*
X166666667Y-43130952D01*
X166666667Y-43273810D01*
X166714286Y-43464286D01*
X166761905Y-43559524D01*
X166857143Y-43654762D01*
X167000001Y-43702381D01*
X167095239Y-43702381D01*
X167238096Y-43654762D01*
X167285715Y-43607143D01*
X167285715Y-43273810D01*
X167095239Y-43273810D01*
X154488095Y-43321429D02*
X155250000Y-43321429D01*
X154869048Y-43702381D02*
X154869048Y-42940476D01*
X155630952Y-42702381D02*
X156250000Y-42702381D01*
X155916666Y-43083333D01*
X156059524Y-43083333D01*
X156154762Y-43130952D01*
X156202381Y-43178571D01*
X156250000Y-43273810D01*
X156250000Y-43511905D01*
X156202381Y-43607143D01*
X156154762Y-43654762D01*
X156059524Y-43702381D01*
X155773809Y-43702381D01*
X155678571Y-43654762D01*
X155630952Y-43607143D01*
X156535714Y-42702381D02*
X156869047Y-43702381D01*
X157202381Y-42702381D01*
X157440476Y-42702381D02*
X158059524Y-42702381D01*
X157726190Y-43083333D01*
X157869048Y-43083333D01*
X157964286Y-43130952D01*
X158011905Y-43178571D01*
X158059524Y-43273810D01*
X158059524Y-43511905D01*
X158011905Y-43607143D01*
X157964286Y-43654762D01*
X157869048Y-43702381D01*
X157583333Y-43702381D01*
X157488095Y-43654762D01*
X157440476Y-43607143D01*
X146714286Y-43321429D02*
X147476191Y-43321429D01*
X147095239Y-43702381D02*
X147095239Y-42940476D01*
X148428572Y-42702381D02*
X147952381Y-42702381D01*
X147904762Y-43178571D01*
X147952381Y-43130952D01*
X148047619Y-43083333D01*
X148285715Y-43083333D01*
X148380953Y-43130952D01*
X148428572Y-43178571D01*
X148476191Y-43273810D01*
X148476191Y-43511905D01*
X148428572Y-43607143D01*
X148380953Y-43654762D01*
X148285715Y-43702381D01*
X148047619Y-43702381D01*
X147952381Y-43654762D01*
X147904762Y-43607143D01*
X148761905Y-42702381D02*
X149095238Y-43702381D01*
X149428572Y-42702381D01*
X138309524Y-43321429D02*
X139071429Y-43321429D01*
X138690477Y-43702381D02*
X138690477Y-42940476D01*
X139880953Y-43178571D02*
X140023810Y-43226190D01*
X140071429Y-43273810D01*
X140119048Y-43369048D01*
X140119048Y-43511905D01*
X140071429Y-43607143D01*
X140023810Y-43654762D01*
X139928572Y-43702381D01*
X139547619Y-43702381D01*
X139547619Y-42702381D01*
X139880953Y-42702381D01*
X139976191Y-42750000D01*
X140023810Y-42797619D01*
X140071429Y-42892857D01*
X140071429Y-42988095D01*
X140023810Y-43083333D01*
X139976191Y-43130952D01*
X139880953Y-43178571D01*
X139547619Y-43178571D01*
X140500000Y-43416667D02*
X140976191Y-43416667D01*
X140404762Y-43702381D02*
X140738095Y-42702381D01*
X141071429Y-43702381D01*
X141261905Y-42702381D02*
X141833334Y-42702381D01*
X141547619Y-43702381D02*
X141547619Y-42702381D01*
D16*
X141880952Y-97726190D02*
X141880952Y-96297618D01*
X144380952Y-97011904D02*
X141880952Y-97011904D01*
X143071429Y-95464285D02*
X143071429Y-94630952D01*
X144380952Y-94273809D02*
X144380952Y-95464285D01*
X141880952Y-95464285D01*
X141880952Y-94273809D01*
X143071429Y-93202380D02*
X143071429Y-92369047D01*
X144380952Y-92011904D02*
X144380952Y-93202380D01*
X141880952Y-93202380D01*
X141880952Y-92011904D01*
X144380952Y-90940475D02*
X141880952Y-90940475D01*
X144380952Y-89511903D01*
X141880952Y-89511903D01*
X144261905Y-88440475D02*
X144380952Y-88083332D01*
X144380952Y-87488094D01*
X144261905Y-87249998D01*
X144142857Y-87130951D01*
X143904762Y-87011903D01*
X143666667Y-87011903D01*
X143428571Y-87130951D01*
X143309524Y-87249998D01*
X143190476Y-87488094D01*
X143071429Y-87964284D01*
X142952381Y-88202379D01*
X142833333Y-88321427D01*
X142595238Y-88440475D01*
X142357143Y-88440475D01*
X142119048Y-88321427D01*
X142000000Y-88202379D01*
X141880952Y-87964284D01*
X141880952Y-87369046D01*
X142000000Y-87011903D01*
X143190476Y-85464284D02*
X144380952Y-85464284D01*
X141880952Y-86297618D02*
X143190476Y-85464284D01*
X141880952Y-84630951D01*
X141880952Y-82130951D02*
X141880952Y-80583332D01*
X142833333Y-81416665D01*
X142833333Y-81059523D01*
X142952381Y-80821427D01*
X143071429Y-80702380D01*
X143309524Y-80583332D01*
X143904762Y-80583332D01*
X144142857Y-80702380D01*
X144261905Y-80821427D01*
X144380952Y-81059523D01*
X144380952Y-81773808D01*
X144261905Y-82011904D01*
X144142857Y-82130951D01*
X144142857Y-79511904D02*
X144261905Y-79392856D01*
X144380952Y-79511904D01*
X144261905Y-79630952D01*
X144142857Y-79511904D01*
X144380952Y-79511904D01*
X142119048Y-78440476D02*
X142000000Y-78321428D01*
X141880952Y-78083333D01*
X141880952Y-77488095D01*
X142000000Y-77249999D01*
X142119048Y-77130952D01*
X142357143Y-77011904D01*
X142595238Y-77011904D01*
X142952381Y-77130952D01*
X144380952Y-78559523D01*
X144380952Y-77011904D01*
D12*
X178630953Y-104952381D02*
X178630953Y-103952381D01*
X179011906Y-103952381D01*
X179107144Y-104000000D01*
X179154763Y-104047619D01*
X179202382Y-104142857D01*
X179202382Y-104285714D01*
X179154763Y-104380952D01*
X179107144Y-104428571D01*
X179011906Y-104476190D01*
X178630953Y-104476190D01*
X180202382Y-104952381D02*
X179869048Y-104476190D01*
X179630953Y-104952381D02*
X179630953Y-103952381D01*
X180011906Y-103952381D01*
X180107144Y-104000000D01*
X180154763Y-104047619D01*
X180202382Y-104142857D01*
X180202382Y-104285714D01*
X180154763Y-104380952D01*
X180107144Y-104428571D01*
X180011906Y-104476190D01*
X179630953Y-104476190D01*
X180821429Y-103952381D02*
X181011906Y-103952381D01*
X181107144Y-104000000D01*
X181202382Y-104095238D01*
X181250001Y-104285714D01*
X181250001Y-104619048D01*
X181202382Y-104809524D01*
X181107144Y-104904762D01*
X181011906Y-104952381D01*
X180821429Y-104952381D01*
X180726191Y-104904762D01*
X180630953Y-104809524D01*
X180583334Y-104619048D01*
X180583334Y-104285714D01*
X180630953Y-104095238D01*
X180726191Y-104000000D01*
X180821429Y-103952381D01*
X181583334Y-103952381D02*
X182250001Y-104952381D01*
X182250001Y-103952381D02*
X181583334Y-104952381D01*
X182630953Y-104952381D02*
X182630953Y-103952381D01*
X183107143Y-104952381D02*
X183107143Y-103952381D01*
X183440477Y-104666667D01*
X183773810Y-103952381D01*
X183773810Y-104952381D01*
X184250000Y-104952381D02*
X184250000Y-103952381D01*
X184583333Y-103952381D02*
X185154762Y-103952381D01*
X184869047Y-104952381D02*
X184869047Y-103952381D01*
X185678571Y-104476190D02*
X185678571Y-104952381D01*
X185345238Y-103952381D02*
X185678571Y-104476190D01*
X186011905Y-103952381D01*
X180785715Y-64678571D02*
X180452381Y-64678571D01*
X180452381Y-65202381D02*
X180452381Y-64202381D01*
X180928572Y-64202381D01*
X181785715Y-65202381D02*
X181309524Y-65202381D01*
X181309524Y-64202381D01*
X182071429Y-64916667D02*
X182547620Y-64916667D01*
X181976191Y-65202381D02*
X182309524Y-64202381D01*
X182642858Y-65202381D01*
X182976191Y-65202381D02*
X182976191Y-64202381D01*
X183309525Y-64916667D01*
X183642858Y-64202381D01*
X183642858Y-65202381D01*
X184119048Y-64678571D02*
X184452382Y-64678571D01*
X184595239Y-65202381D02*
X184119048Y-65202381D01*
X184119048Y-64202381D01*
X184595239Y-64202381D01*
X128452381Y-127261905D02*
X127452381Y-127261905D01*
X128166667Y-126928571D01*
X127452381Y-126595238D01*
X128452381Y-126595238D01*
X127452381Y-125928572D02*
X127452381Y-125738095D01*
X127500000Y-125642857D01*
X127595238Y-125547619D01*
X127785714Y-125500000D01*
X128119048Y-125500000D01*
X128309524Y-125547619D01*
X128404762Y-125642857D01*
X128452381Y-125738095D01*
X128452381Y-125928572D01*
X128404762Y-126023810D01*
X128309524Y-126119048D01*
X128119048Y-126166667D01*
X127785714Y-126166667D01*
X127595238Y-126119048D01*
X127500000Y-126023810D01*
X127452381Y-125928572D01*
X127452381Y-125214286D02*
X127452381Y-124642857D01*
X128452381Y-124928572D02*
X127452381Y-124928572D01*
X127452381Y-124119048D02*
X127452381Y-123928571D01*
X127500000Y-123833333D01*
X127595238Y-123738095D01*
X127785714Y-123690476D01*
X128119048Y-123690476D01*
X128309524Y-123738095D01*
X128404762Y-123833333D01*
X128452381Y-123928571D01*
X128452381Y-124119048D01*
X128404762Y-124214286D01*
X128309524Y-124309524D01*
X128119048Y-124357143D01*
X127785714Y-124357143D01*
X127595238Y-124309524D01*
X127500000Y-124214286D01*
X127452381Y-124119048D01*
X128452381Y-122690476D02*
X127976190Y-123023810D01*
X128452381Y-123261905D02*
X127452381Y-123261905D01*
X127452381Y-122880952D01*
X127500000Y-122785714D01*
X127547619Y-122738095D01*
X127642857Y-122690476D01*
X127785714Y-122690476D01*
X127880952Y-122738095D01*
X127928571Y-122785714D01*
X127976190Y-122880952D01*
X127976190Y-123261905D01*
X142452381Y-127011905D02*
X141452381Y-127011905D01*
X142166667Y-126678571D01*
X141452381Y-126345238D01*
X142452381Y-126345238D01*
X141452381Y-125678572D02*
X141452381Y-125488095D01*
X141500000Y-125392857D01*
X141595238Y-125297619D01*
X141785714Y-125250000D01*
X142119048Y-125250000D01*
X142309524Y-125297619D01*
X142404762Y-125392857D01*
X142452381Y-125488095D01*
X142452381Y-125678572D01*
X142404762Y-125773810D01*
X142309524Y-125869048D01*
X142119048Y-125916667D01*
X141785714Y-125916667D01*
X141595238Y-125869048D01*
X141500000Y-125773810D01*
X141452381Y-125678572D01*
X141452381Y-124964286D02*
X141452381Y-124392857D01*
X142452381Y-124678572D02*
X141452381Y-124678572D01*
X141452381Y-123869048D02*
X141452381Y-123678571D01*
X141500000Y-123583333D01*
X141595238Y-123488095D01*
X141785714Y-123440476D01*
X142119048Y-123440476D01*
X142309524Y-123488095D01*
X142404762Y-123583333D01*
X142452381Y-123678571D01*
X142452381Y-123869048D01*
X142404762Y-123964286D01*
X142309524Y-124059524D01*
X142119048Y-124107143D01*
X141785714Y-124107143D01*
X141595238Y-124059524D01*
X141500000Y-123964286D01*
X141452381Y-123869048D01*
X142452381Y-122440476D02*
X141976190Y-122773810D01*
X142452381Y-123011905D02*
X141452381Y-123011905D01*
X141452381Y-122630952D01*
X141500000Y-122535714D01*
X141547619Y-122488095D01*
X141642857Y-122440476D01*
X141785714Y-122440476D01*
X141880952Y-122488095D01*
X141928571Y-122535714D01*
X141976190Y-122630952D01*
X141976190Y-123011905D01*
X156202381Y-130988095D02*
X155202381Y-130988095D01*
X155916667Y-130654761D01*
X155202381Y-130321428D01*
X156202381Y-130321428D01*
X155202381Y-129654762D02*
X155202381Y-129464285D01*
X155250000Y-129369047D01*
X155345238Y-129273809D01*
X155535714Y-129226190D01*
X155869048Y-129226190D01*
X156059524Y-129273809D01*
X156154762Y-129369047D01*
X156202381Y-129464285D01*
X156202381Y-129654762D01*
X156154762Y-129750000D01*
X156059524Y-129845238D01*
X155869048Y-129892857D01*
X155535714Y-129892857D01*
X155345238Y-129845238D01*
X155250000Y-129750000D01*
X155202381Y-129654762D01*
X155202381Y-128940476D02*
X155202381Y-128369047D01*
X156202381Y-128654762D02*
X155202381Y-128654762D01*
X155202381Y-127845238D02*
X155202381Y-127654761D01*
X155250000Y-127559523D01*
X155345238Y-127464285D01*
X155535714Y-127416666D01*
X155869048Y-127416666D01*
X156059524Y-127464285D01*
X156154762Y-127559523D01*
X156202381Y-127654761D01*
X156202381Y-127845238D01*
X156154762Y-127940476D01*
X156059524Y-128035714D01*
X155869048Y-128083333D01*
X155535714Y-128083333D01*
X155345238Y-128035714D01*
X155250000Y-127940476D01*
X155202381Y-127845238D01*
X156202381Y-126416666D02*
X155726190Y-126750000D01*
X156202381Y-126988095D02*
X155202381Y-126988095D01*
X155202381Y-126607142D01*
X155250000Y-126511904D01*
X155297619Y-126464285D01*
X155392857Y-126416666D01*
X155535714Y-126416666D01*
X155630952Y-126464285D01*
X155678571Y-126511904D01*
X155726190Y-126607142D01*
X155726190Y-126988095D01*
X155154762Y-125273809D02*
X156440476Y-126130952D01*
X155678571Y-124940476D02*
X155678571Y-124607142D01*
X156202381Y-124464285D02*
X156202381Y-124940476D01*
X155202381Y-124940476D01*
X155202381Y-124464285D01*
X156202381Y-124035714D02*
X155202381Y-124035714D01*
X156202381Y-123464285D01*
X155202381Y-123464285D01*
X156107143Y-122416666D02*
X156154762Y-122464285D01*
X156202381Y-122607142D01*
X156202381Y-122702380D01*
X156154762Y-122845238D01*
X156059524Y-122940476D01*
X155964286Y-122988095D01*
X155773810Y-123035714D01*
X155630952Y-123035714D01*
X155440476Y-122988095D01*
X155345238Y-122940476D01*
X155250000Y-122845238D01*
X155202381Y-122702380D01*
X155202381Y-122607142D01*
X155250000Y-122464285D01*
X155297619Y-122416666D01*
X155202381Y-121797619D02*
X155202381Y-121607142D01*
X155250000Y-121511904D01*
X155345238Y-121416666D01*
X155535714Y-121369047D01*
X155869048Y-121369047D01*
X156059524Y-121416666D01*
X156154762Y-121511904D01*
X156202381Y-121607142D01*
X156202381Y-121797619D01*
X156154762Y-121892857D01*
X156059524Y-121988095D01*
X155869048Y-122035714D01*
X155535714Y-122035714D01*
X155345238Y-121988095D01*
X155250000Y-121892857D01*
X155202381Y-121797619D01*
X156202381Y-120940476D02*
X155202381Y-120940476D01*
X155202381Y-120702381D01*
X155250000Y-120559523D01*
X155345238Y-120464285D01*
X155440476Y-120416666D01*
X155630952Y-120369047D01*
X155773810Y-120369047D01*
X155964286Y-120416666D01*
X156059524Y-120464285D01*
X156154762Y-120559523D01*
X156202381Y-120702381D01*
X156202381Y-120940476D01*
X155678571Y-119940476D02*
X155678571Y-119607142D01*
X156202381Y-119464285D02*
X156202381Y-119940476D01*
X155202381Y-119940476D01*
X155202381Y-119464285D01*
X156202381Y-118464285D02*
X155726190Y-118797619D01*
X156202381Y-119035714D02*
X155202381Y-119035714D01*
X155202381Y-118654761D01*
X155250000Y-118559523D01*
X155297619Y-118511904D01*
X155392857Y-118464285D01*
X155535714Y-118464285D01*
X155630952Y-118511904D01*
X155678571Y-118559523D01*
X155726190Y-118654761D01*
X155726190Y-119035714D01*
X104602381Y-130488095D02*
X103602381Y-130488095D01*
X104316667Y-130154761D01*
X103602381Y-129821428D01*
X104602381Y-129821428D01*
X103602381Y-129154762D02*
X103602381Y-128964285D01*
X103650000Y-128869047D01*
X103745238Y-128773809D01*
X103935714Y-128726190D01*
X104269048Y-128726190D01*
X104459524Y-128773809D01*
X104554762Y-128869047D01*
X104602381Y-128964285D01*
X104602381Y-129154762D01*
X104554762Y-129250000D01*
X104459524Y-129345238D01*
X104269048Y-129392857D01*
X103935714Y-129392857D01*
X103745238Y-129345238D01*
X103650000Y-129250000D01*
X103602381Y-129154762D01*
X103602381Y-128440476D02*
X103602381Y-127869047D01*
X104602381Y-128154762D02*
X103602381Y-128154762D01*
X103602381Y-127345238D02*
X103602381Y-127154761D01*
X103650000Y-127059523D01*
X103745238Y-126964285D01*
X103935714Y-126916666D01*
X104269048Y-126916666D01*
X104459524Y-126964285D01*
X104554762Y-127059523D01*
X104602381Y-127154761D01*
X104602381Y-127345238D01*
X104554762Y-127440476D01*
X104459524Y-127535714D01*
X104269048Y-127583333D01*
X103935714Y-127583333D01*
X103745238Y-127535714D01*
X103650000Y-127440476D01*
X103602381Y-127345238D01*
X104602381Y-125916666D02*
X104126190Y-126250000D01*
X104602381Y-126488095D02*
X103602381Y-126488095D01*
X103602381Y-126107142D01*
X103650000Y-126011904D01*
X103697619Y-125964285D01*
X103792857Y-125916666D01*
X103935714Y-125916666D01*
X104030952Y-125964285D01*
X104078571Y-126011904D01*
X104126190Y-126107142D01*
X104126190Y-126488095D01*
X103554762Y-124773809D02*
X104840476Y-125630952D01*
X104078571Y-124440476D02*
X104078571Y-124107142D01*
X104602381Y-123964285D02*
X104602381Y-124440476D01*
X103602381Y-124440476D01*
X103602381Y-123964285D01*
X104602381Y-123535714D02*
X103602381Y-123535714D01*
X104602381Y-122964285D01*
X103602381Y-122964285D01*
X104507143Y-121916666D02*
X104554762Y-121964285D01*
X104602381Y-122107142D01*
X104602381Y-122202380D01*
X104554762Y-122345238D01*
X104459524Y-122440476D01*
X104364286Y-122488095D01*
X104173810Y-122535714D01*
X104030952Y-122535714D01*
X103840476Y-122488095D01*
X103745238Y-122440476D01*
X103650000Y-122345238D01*
X103602381Y-122202380D01*
X103602381Y-122107142D01*
X103650000Y-121964285D01*
X103697619Y-121916666D01*
X103602381Y-121297619D02*
X103602381Y-121107142D01*
X103650000Y-121011904D01*
X103745238Y-120916666D01*
X103935714Y-120869047D01*
X104269048Y-120869047D01*
X104459524Y-120916666D01*
X104554762Y-121011904D01*
X104602381Y-121107142D01*
X104602381Y-121297619D01*
X104554762Y-121392857D01*
X104459524Y-121488095D01*
X104269048Y-121535714D01*
X103935714Y-121535714D01*
X103745238Y-121488095D01*
X103650000Y-121392857D01*
X103602381Y-121297619D01*
X104602381Y-120440476D02*
X103602381Y-120440476D01*
X103602381Y-120202381D01*
X103650000Y-120059523D01*
X103745238Y-119964285D01*
X103840476Y-119916666D01*
X104030952Y-119869047D01*
X104173810Y-119869047D01*
X104364286Y-119916666D01*
X104459524Y-119964285D01*
X104554762Y-120059523D01*
X104602381Y-120202381D01*
X104602381Y-120440476D01*
X104078571Y-119440476D02*
X104078571Y-119107142D01*
X104602381Y-118964285D02*
X104602381Y-119440476D01*
X103602381Y-119440476D01*
X103602381Y-118964285D01*
X104602381Y-117964285D02*
X104126190Y-118297619D01*
X104602381Y-118535714D02*
X103602381Y-118535714D01*
X103602381Y-118154761D01*
X103650000Y-118059523D01*
X103697619Y-118011904D01*
X103792857Y-117964285D01*
X103935714Y-117964285D01*
X104030952Y-118011904D01*
X104078571Y-118059523D01*
X104126190Y-118154761D01*
X104126190Y-118535714D01*
X93392857Y-100404762D02*
X93535714Y-100452381D01*
X93773810Y-100452381D01*
X93869048Y-100404762D01*
X93916667Y-100357143D01*
X93964286Y-100261905D01*
X93964286Y-100166667D01*
X93916667Y-100071429D01*
X93869048Y-100023810D01*
X93773810Y-99976190D01*
X93583333Y-99928571D01*
X93488095Y-99880952D01*
X93440476Y-99833333D01*
X93392857Y-99738095D01*
X93392857Y-99642857D01*
X93440476Y-99547619D01*
X93488095Y-99500000D01*
X93583333Y-99452381D01*
X93821429Y-99452381D01*
X93964286Y-99500000D01*
X94773810Y-100404762D02*
X94678572Y-100452381D01*
X94488095Y-100452381D01*
X94392857Y-100404762D01*
X94345238Y-100309524D01*
X94345238Y-99928571D01*
X94392857Y-99833333D01*
X94488095Y-99785714D01*
X94678572Y-99785714D01*
X94773810Y-99833333D01*
X94821429Y-99928571D01*
X94821429Y-100023810D01*
X94345238Y-100119048D01*
X95250000Y-100452381D02*
X95250000Y-99785714D01*
X95250000Y-99976190D02*
X95297619Y-99880952D01*
X95345238Y-99833333D01*
X95440476Y-99785714D01*
X95535715Y-99785714D01*
X95773810Y-99785714D02*
X96011905Y-100452381D01*
X96250001Y-99785714D01*
X96773810Y-100452381D02*
X96678572Y-100404762D01*
X96630953Y-100357143D01*
X96583334Y-100261905D01*
X96583334Y-99976190D01*
X96630953Y-99880952D01*
X96678572Y-99833333D01*
X96773810Y-99785714D01*
X96916668Y-99785714D01*
X97011906Y-99833333D01*
X97059525Y-99880952D01*
X97107144Y-99976190D01*
X97107144Y-100261905D01*
X97059525Y-100357143D01*
X97011906Y-100404762D01*
X96916668Y-100452381D01*
X96773810Y-100452381D01*
D16*
X92507143Y-84178570D02*
X92507143Y-83035713D01*
X93078571Y-83607142D02*
X91935714Y-83607142D01*
X93078571Y-81535713D02*
X93078571Y-82392856D01*
X93078571Y-81964284D02*
X91578571Y-81964284D01*
X91792857Y-82107141D01*
X91935714Y-82249999D01*
X92007143Y-82392856D01*
X91721429Y-80964285D02*
X91650000Y-80892856D01*
X91578571Y-80749999D01*
X91578571Y-80392856D01*
X91650000Y-80249999D01*
X91721429Y-80178570D01*
X91864286Y-80107142D01*
X92007143Y-80107142D01*
X92221429Y-80178570D01*
X93078571Y-81035713D01*
X93078571Y-80107142D01*
X91578571Y-79678571D02*
X93078571Y-79178571D01*
X91578571Y-78678571D01*
X92292857Y-76535714D02*
X92364286Y-76321428D01*
X92435714Y-76250000D01*
X92578571Y-76178571D01*
X92792857Y-76178571D01*
X92935714Y-76250000D01*
X93007143Y-76321428D01*
X93078571Y-76464286D01*
X93078571Y-77035714D01*
X91578571Y-77035714D01*
X91578571Y-76535714D01*
X91650000Y-76392857D01*
X91721429Y-76321428D01*
X91864286Y-76250000D01*
X92007143Y-76250000D01*
X92150000Y-76321428D01*
X92221429Y-76392857D01*
X92292857Y-76535714D01*
X92292857Y-77035714D01*
X92650000Y-75607143D02*
X92650000Y-74892857D01*
X93078571Y-75750000D02*
X91578571Y-75250000D01*
X93078571Y-74750000D01*
X91578571Y-74464286D02*
X91578571Y-73607143D01*
X93078571Y-74035714D02*
X91578571Y-74035714D01*
D17*
X105599000Y-97007000D02*
X105599000Y-106913000D01*
X105599000Y-106913000D02*
X108901000Y-106913000D01*
X108901000Y-106913000D02*
X108901000Y-97007000D01*
X108901000Y-97007000D02*
X105599000Y-97007000D01*
X174867000Y-117857000D02*
X156833000Y-117857000D01*
X156833000Y-117857000D02*
X156833000Y-131700000D01*
X156833000Y-131700000D02*
X174867000Y-131700000D01*
X174867000Y-131700000D02*
X174867000Y-117857000D01*
X123367000Y-117857000D02*
X105333000Y-117857000D01*
X105333000Y-117857000D02*
X105333000Y-131700000D01*
X105333000Y-131700000D02*
X123367000Y-131700000D01*
X123367000Y-131700000D02*
X123367000Y-117857000D01*
X103143000Y-111497000D02*
X103143000Y-101083000D01*
X103143000Y-101083000D02*
X89300000Y-101083000D01*
X89300000Y-101083000D02*
X89300000Y-111497000D01*
X89300000Y-111497000D02*
X103143000Y-111497000D01*
D18*
X184700877Y-76250000D02*
G75*
G03X184700877Y-76250000I-5700877J0D01*
G01*
X184000000Y-76250000D02*
G75*
G03X184000000Y-76250000I-5000000J0D01*
G01*
X124326000Y-39849000D02*
X124326000Y-43278000D01*
X114674000Y-39849000D02*
X114674000Y-43278000D01*
X124834000Y-38706000D02*
X114166000Y-38706000D01*
X121278000Y-39722000D02*
X121278000Y-38452000D01*
X117722000Y-39722000D02*
X117722000Y-38452000D01*
X114166000Y-39849000D02*
X124834000Y-39849000D01*
X124834000Y-43278000D02*
X114166000Y-43278000D01*
X114166000Y-38452000D02*
X114166000Y-43278000D01*
X124834000Y-38452000D02*
X124834000Y-43278000D01*
X124834000Y-38452000D02*
X114166000Y-38452000D01*
X94300000Y-58400000D02*
X94300000Y-51400000D01*
X94300000Y-62400000D02*
X94300000Y-60400000D01*
X94300000Y-60400000D02*
X92800000Y-58400000D01*
X92500000Y-50000000D02*
X100100000Y-50000000D01*
X100100000Y-63400000D02*
X100100000Y-50000000D01*
X92500000Y-63400000D02*
X92500000Y-50000000D01*
X92500000Y-63400000D02*
X100100000Y-63400000D01*
D17*
X113993000Y-71018100D02*
X106627000Y-71018100D01*
X106627000Y-73337348D02*
X106627000Y-73702652D01*
X106627000Y-91261900D02*
X113993000Y-91261900D01*
X113993000Y-88935260D02*
X113993000Y-88577348D01*
X113993000Y-86402652D02*
X113993000Y-86037348D01*
X113993000Y-83862652D02*
X113993000Y-83497348D01*
X113993000Y-81322652D02*
X113993000Y-80957348D01*
X113993000Y-78782652D02*
X113993000Y-78417348D01*
X113993000Y-76242652D02*
X113993000Y-75877348D01*
X113993000Y-73702652D02*
X113993000Y-73337348D01*
X106627000Y-75877348D02*
X106627000Y-76242652D01*
X106627000Y-78417348D02*
X106627000Y-78782652D01*
X106627000Y-80957348D02*
X106627000Y-81322652D01*
X106627000Y-83497348D02*
X106627000Y-83862652D01*
X106627000Y-86037348D02*
X106627000Y-86402652D01*
X106627000Y-88577348D02*
X106627000Y-88942652D01*
X174903800Y-87673000D02*
X174903800Y-103167000D01*
X174903800Y-103167000D02*
X188950000Y-103167000D01*
X188950000Y-103167000D02*
X188950000Y-87673000D01*
X188950000Y-87673000D02*
X174903800Y-87673000D01*
X175107000Y-50713000D02*
X175107000Y-63667000D01*
X175107000Y-63667000D02*
X188950000Y-63667000D01*
X188950000Y-63667000D02*
X188950000Y-50713000D01*
X188950000Y-50713000D02*
X175107000Y-50713000D01*
X150957000Y-117857000D02*
X143083000Y-117857000D01*
X143083000Y-117857000D02*
X143083000Y-131700000D01*
X143083000Y-131700000D02*
X150957000Y-131700000D01*
X150957000Y-131700000D02*
X150957000Y-117857000D01*
X136957000Y-117857000D02*
X129083000Y-117857000D01*
X129083000Y-117857000D02*
X129083000Y-131700000D01*
X129083000Y-131700000D02*
X136957000Y-131700000D01*
X136957000Y-131700000D02*
X136957000Y-117857000D01*
D19*
X160920000Y-106640000D02*
X163580000Y-106640000D01*
X160920000Y-71020000D02*
X160920000Y-106640000D01*
X163580000Y-71020000D02*
X163580000Y-106640000D01*
X160920000Y-71020000D02*
X163580000Y-71020000D01*
X160920000Y-69750000D02*
X160920000Y-68420000D01*
X160920000Y-68420000D02*
X162250000Y-68420000D01*
X123670000Y-106640000D02*
X126330000Y-106640000D01*
X123670000Y-71020000D02*
X123670000Y-106640000D01*
X126330000Y-71020000D02*
X126330000Y-106640000D01*
X123670000Y-71020000D02*
X126330000Y-71020000D01*
X123670000Y-69750000D02*
X123670000Y-68420000D01*
X123670000Y-68420000D02*
X125000000Y-68420000D01*
X163070000Y-48250000D02*
X163070000Y-50250000D01*
X160930000Y-50250000D02*
X160930000Y-48250000D01*
X158070000Y-48250000D02*
X158070000Y-50250000D01*
X155930000Y-50250000D02*
X155930000Y-48250000D01*
X153570000Y-48250000D02*
X153570000Y-50250000D01*
X151430000Y-50250000D02*
X151430000Y-48250000D01*
X146820000Y-48250000D02*
X146820000Y-50250000D01*
X144680000Y-50250000D02*
X144680000Y-48250000D01*
X143070000Y-48250000D02*
X143070000Y-50250000D01*
X140930000Y-50250000D02*
X140930000Y-48250000D01*
X114520000Y-62080000D02*
X124740000Y-62080000D01*
X124740000Y-62080000D02*
X124740000Y-59420000D01*
X124740000Y-59420000D02*
X114520000Y-59420000D01*
X114520000Y-59420000D02*
X114520000Y-62080000D01*
X113250000Y-62080000D02*
X111920000Y-62080000D01*
X111920000Y-62080000D02*
X111920000Y-60750000D01*
X149920000Y-72270000D02*
X149920000Y-105350000D01*
X149920000Y-105350000D02*
X152580000Y-105350000D01*
X152580000Y-105350000D02*
X152580000Y-72270000D01*
X152580000Y-72270000D02*
X149920000Y-72270000D01*
X149920000Y-71000000D02*
X149920000Y-69670000D01*
X149920000Y-69670000D02*
X151250000Y-69670000D01*
X134670000Y-72270000D02*
X134670000Y-105350000D01*
X134670000Y-105350000D02*
X137330000Y-105350000D01*
X137330000Y-105350000D02*
X137330000Y-72270000D01*
X137330000Y-72270000D02*
X134670000Y-72270000D01*
X134670000Y-71000000D02*
X134670000Y-69670000D01*
X134670000Y-69670000D02*
X136000000Y-69670000D01*
X164999538Y-42260000D02*
G75*
G03X166544830Y-36710000I462J2990000D01*
G01*
X165000462Y-42260000D02*
G75*
G02X163455170Y-36710000I-462J2990000D01*
G01*
X167500000Y-39270000D02*
G75*
G03X167500000Y-39270000I-2500000J0D01*
G01*
X166545000Y-36710000D02*
X163455000Y-36710000D01*
X156749538Y-42260000D02*
G75*
G03X158294830Y-36710000I462J2990000D01*
G01*
X156750462Y-42260000D02*
G75*
G02X155205170Y-36710000I-462J2990000D01*
G01*
X159250000Y-39270000D02*
G75*
G03X159250000Y-39270000I-2500000J0D01*
G01*
X158295000Y-36710000D02*
X155205000Y-36710000D01*
X148499538Y-42260000D02*
G75*
G03X150044830Y-36710000I462J2990000D01*
G01*
X148500462Y-42260000D02*
G75*
G02X146955170Y-36710000I-462J2990000D01*
G01*
X151000000Y-39270000D02*
G75*
G03X151000000Y-39270000I-2500000J0D01*
G01*
X150045000Y-36710000D02*
X146955000Y-36710000D01*
X140249538Y-42260000D02*
G75*
G03X141794830Y-36710000I462J2990000D01*
G01*
X140250462Y-42260000D02*
G75*
G02X138705170Y-36710000I-462J2990000D01*
G01*
X142750000Y-39270000D02*
G75*
G03X142750000Y-39270000I-2500000J0D01*
G01*
X141795000Y-36710000D02*
X138705000Y-36710000D01*
X129020000Y-49750000D02*
X129020000Y-47750000D01*
X126980000Y-47750000D02*
X126980000Y-49750000D01*
X113020000Y-49750000D02*
X113020000Y-47750000D01*
X110980000Y-47750000D02*
X110980000Y-49750000D01*
D17*
X109599000Y-97007000D02*
X109599000Y-106913000D01*
X109599000Y-106913000D02*
X112901000Y-106913000D01*
X112901000Y-106913000D02*
X112901000Y-97007000D01*
X112901000Y-97007000D02*
X109599000Y-97007000D01*
X113349000Y-97007000D02*
X113349000Y-106913000D01*
X113349000Y-106913000D02*
X116651000Y-106913000D01*
X116651000Y-106913000D02*
X116651000Y-97007000D01*
X116651000Y-97007000D02*
X113349000Y-97007000D01*
X117099000Y-97007000D02*
X117099000Y-106913000D01*
X117099000Y-106913000D02*
X120401000Y-106913000D01*
X120401000Y-106913000D02*
X120401000Y-97007000D01*
X120401000Y-97007000D02*
X117099000Y-97007000D01*
D18*
X115750000Y-90500000D02*
X115750000Y-89500000D01*
X115750000Y-89500000D02*
X115250000Y-90000000D01*
X115250000Y-90000000D02*
X115750000Y-90500000D01*
X113500000Y-57500000D02*
X112500000Y-57500000D01*
X112500000Y-57500000D02*
X113000000Y-58000000D01*
X113000000Y-58000000D02*
X113500000Y-57500000D01*
X122250000Y-69250000D02*
X122250000Y-70250000D01*
X122250000Y-70250000D02*
X122750000Y-69750000D01*
X122750000Y-69750000D02*
X122250000Y-69250000D01*
X133500000Y-70500000D02*
X133500000Y-71500000D01*
X133500000Y-71500000D02*
X134000000Y-71000000D01*
X134000000Y-71000000D02*
X133500000Y-70500000D01*
X154000000Y-71500000D02*
X154000000Y-70500000D01*
X154000000Y-70500000D02*
X153500000Y-71000000D01*
X153500000Y-71000000D02*
X154000000Y-71500000D01*
X164750000Y-70250000D02*
X164750000Y-69250000D01*
X164750000Y-69250000D02*
X164250000Y-69750000D01*
X164250000Y-69750000D02*
X164750000Y-70250000D01*
X104000000Y-109250000D02*
X104000000Y-108250000D01*
X104000000Y-108250000D02*
X103500000Y-108750000D01*
X103500000Y-108750000D02*
X104000000Y-109250000D01*
X121250000Y-117000000D02*
X120250000Y-117000000D01*
X120250000Y-117000000D02*
X120750000Y-117500000D01*
X120750000Y-117500000D02*
X121250000Y-117000000D01*
X134750000Y-117000000D02*
X133750000Y-117000000D01*
X133750000Y-117000000D02*
X134250000Y-117500000D01*
X134250000Y-117500000D02*
X134750000Y-117000000D01*
X148750000Y-117000000D02*
X147750000Y-117000000D01*
X147750000Y-117000000D02*
X148250000Y-117500000D01*
X148250000Y-117500000D02*
X148750000Y-117000000D01*
X172750000Y-117000000D02*
X171750000Y-117000000D01*
X171750000Y-117000000D02*
X172250000Y-117500000D01*
X172250000Y-117500000D02*
X172750000Y-117000000D01*
X174000000Y-89750000D02*
X174000000Y-90750000D01*
X174000000Y-90750000D02*
X174500000Y-90250000D01*
X174500000Y-90250000D02*
X174000000Y-89750000D01*
X174250000Y-52750000D02*
X174250000Y-53750000D01*
X174250000Y-53750000D02*
X174750000Y-53250000D01*
X174750000Y-53250000D02*
X174250000Y-52750000D01*
X176250000Y-78250000D02*
X176250000Y-79250000D01*
X176250000Y-79250000D02*
X176750000Y-78750000D01*
X176750000Y-78750000D02*
X176250000Y-78250000D01*
X116500000Y-44000000D02*
X117500000Y-44000000D01*
X117500000Y-44000000D02*
X117000000Y-43500000D01*
X117000000Y-43500000D02*
X116500000Y-44000000D01*
D19*
X171370000Y-65900000D02*
X171370000Y-67900000D01*
X169230000Y-67900000D02*
X169230000Y-65900000D01*
X99720000Y-117100000D02*
X99720000Y-115100000D01*
X97680000Y-115100000D02*
X97680000Y-117100000D01*
X93430000Y-117100000D02*
X93430000Y-115100000D01*
X95570000Y-115100000D02*
X95570000Y-117100000D01*
X94400000Y-82050000D02*
X99100000Y-82050000D01*
X99100000Y-82050000D02*
X99100000Y-75950000D01*
X99100000Y-75950000D02*
X94400000Y-75950000D01*
X94400000Y-75950000D02*
X94400000Y-82050000D01*
X94400000Y-79500000D02*
X95000000Y-79500000D01*
X95000000Y-79500000D02*
X95000000Y-81450000D01*
X95000000Y-81450000D02*
X98500000Y-81450000D01*
X98500000Y-81450000D02*
X98500000Y-76550000D01*
X98500000Y-76550000D02*
X95000000Y-76550000D01*
X95000000Y-76550000D02*
X95000000Y-78500000D01*
X95000000Y-78500000D02*
X94400000Y-78500000D01*
X95700000Y-82050000D02*
X95700000Y-81450000D01*
X97000000Y-82050000D02*
X97000000Y-81450000D01*
X95700000Y-75950000D02*
X95700000Y-76550000D01*
X97000000Y-75950000D02*
X97000000Y-76550000D01*
X94400000Y-80300000D02*
X94200000Y-80300000D01*
X94200000Y-80300000D02*
X94200000Y-80600000D01*
X94200000Y-80600000D02*
X94400000Y-80600000D01*
X94300000Y-80300000D02*
X94300000Y-80600000D01*
X98500000Y-79100000D02*
X98000000Y-79100000D01*
X98000000Y-79100000D02*
X98000000Y-78900000D01*
X98000000Y-78900000D02*
X98500000Y-78900000D01*
X98500000Y-79000000D02*
X98000000Y-79000000D01*
X94100000Y-81100000D02*
X94100000Y-82350000D01*
X94100000Y-82350000D02*
X95350000Y-82350000D01*
D18*
X100900000Y-61800000D02*
X100900000Y-60800000D01*
X100900000Y-60800000D02*
X100400000Y-61300000D01*
X100400000Y-61300000D02*
X100900000Y-61800000D01*
X99900000Y-80600000D02*
X99900000Y-79600000D01*
X99900000Y-79600000D02*
X99400000Y-80100000D01*
X99400000Y-80100000D02*
X99900000Y-80600000D01*
D10*
X176962000Y-92880000D02*
G75*
G03X176962000Y-92880000I-712000J0D01*
G01*
D18*
X106916667Y-95928571D02*
X106583333Y-95928571D01*
X106583333Y-96452381D02*
X106583333Y-95452381D01*
X107059524Y-95452381D01*
X107869048Y-95785714D02*
X107869048Y-96452381D01*
X107630952Y-95404762D02*
X107392857Y-96119048D01*
X108011905Y-96119048D01*
D16*
X157750000Y-115928571D02*
X157750000Y-117000000D01*
X157678572Y-117214286D01*
X157535715Y-117357143D01*
X157321429Y-117428571D01*
X157178572Y-117428571D01*
X159107143Y-115928571D02*
X158821429Y-115928571D01*
X158678572Y-116000000D01*
X158607143Y-116071429D01*
X158464286Y-116285714D01*
X158392857Y-116571429D01*
X158392857Y-117142857D01*
X158464286Y-117285714D01*
X158535714Y-117357143D01*
X158678572Y-117428571D01*
X158964286Y-117428571D01*
X159107143Y-117357143D01*
X159178572Y-117285714D01*
X159250000Y-117142857D01*
X159250000Y-116785714D01*
X159178572Y-116642857D01*
X159107143Y-116571429D01*
X158964286Y-116500000D01*
X158678572Y-116500000D01*
X158535714Y-116571429D01*
X158464286Y-116642857D01*
X158392857Y-116785714D01*
X106500000Y-115928571D02*
X106500000Y-117000000D01*
X106428572Y-117214286D01*
X106285715Y-117357143D01*
X106071429Y-117428571D01*
X105928572Y-117428571D01*
X107928572Y-115928571D02*
X107214286Y-115928571D01*
X107142857Y-116642857D01*
X107214286Y-116571429D01*
X107357143Y-116500000D01*
X107714286Y-116500000D01*
X107857143Y-116571429D01*
X107928572Y-116642857D01*
X108000000Y-116785714D01*
X108000000Y-117142857D01*
X107928572Y-117285714D01*
X107857143Y-117357143D01*
X107714286Y-117428571D01*
X107357143Y-117428571D01*
X107214286Y-117357143D01*
X107142857Y-117285714D01*
X101500000Y-99178571D02*
X101500000Y-100250000D01*
X101428572Y-100464286D01*
X101285715Y-100607143D01*
X101071429Y-100678571D01*
X100928572Y-100678571D01*
X102285714Y-100678571D02*
X102571429Y-100678571D01*
X102714286Y-100607143D01*
X102785714Y-100535714D01*
X102928572Y-100321429D01*
X103000000Y-100035714D01*
X103000000Y-99464286D01*
X102928572Y-99321429D01*
X102857143Y-99250000D01*
X102714286Y-99178571D01*
X102428572Y-99178571D01*
X102285714Y-99250000D01*
X102214286Y-99321429D01*
X102142857Y-99464286D01*
X102142857Y-99821429D01*
X102214286Y-99964286D01*
X102285714Y-100035714D01*
X102428572Y-100107143D01*
X102714286Y-100107143D01*
X102857143Y-100035714D01*
X102928572Y-99964286D01*
X103000000Y-99821429D01*
D18*
X172488095Y-71154762D02*
X172630952Y-71202381D01*
X172869048Y-71202381D01*
X172964286Y-71154762D01*
X173011905Y-71107143D01*
X173059524Y-71011905D01*
X173059524Y-70916667D01*
X173011905Y-70821429D01*
X172964286Y-70773810D01*
X172869048Y-70726190D01*
X172678571Y-70678571D01*
X172583333Y-70630952D01*
X172535714Y-70583333D01*
X172488095Y-70488095D01*
X172488095Y-70392857D01*
X172535714Y-70297619D01*
X172583333Y-70250000D01*
X172678571Y-70202381D01*
X172916667Y-70202381D01*
X173059524Y-70250000D01*
X173488095Y-71202381D02*
X173488095Y-70202381D01*
X173869048Y-70202381D01*
X173964286Y-70250000D01*
X174011905Y-70297619D01*
X174059524Y-70392857D01*
X174059524Y-70535714D01*
X174011905Y-70630952D01*
X173964286Y-70678571D01*
X173869048Y-70726190D01*
X173488095Y-70726190D01*
X175011905Y-71202381D02*
X174440476Y-71202381D01*
X174726190Y-71202381D02*
X174726190Y-70202381D01*
X174630952Y-70345238D01*
X174535714Y-70440476D01*
X174440476Y-70488095D01*
D16*
X118357143Y-36360571D02*
X118357143Y-37574857D01*
X118428571Y-37717714D01*
X118500000Y-37789143D01*
X118642857Y-37860571D01*
X118928571Y-37860571D01*
X119071429Y-37789143D01*
X119142857Y-37717714D01*
X119214286Y-37574857D01*
X119214286Y-36360571D01*
X120714286Y-37860571D02*
X119857143Y-37860571D01*
X120285715Y-37860571D02*
X120285715Y-36360571D01*
X120142858Y-36574857D01*
X120000000Y-36717714D01*
X119857143Y-36789143D01*
X94300000Y-48307143D02*
X94514286Y-48378571D01*
X94871429Y-48378571D01*
X95014286Y-48307143D01*
X95085715Y-48235714D01*
X95157143Y-48092857D01*
X95157143Y-47950000D01*
X95085715Y-47807143D01*
X95014286Y-47735714D01*
X94871429Y-47664286D01*
X94585715Y-47592857D01*
X94442857Y-47521429D01*
X94371429Y-47450000D01*
X94300000Y-47307143D01*
X94300000Y-47164286D01*
X94371429Y-47021429D01*
X94442857Y-46950000D01*
X94585715Y-46878571D01*
X94942857Y-46878571D01*
X95157143Y-46950000D01*
X95657143Y-46878571D02*
X96014286Y-48378571D01*
X96300000Y-47307143D01*
X96585714Y-48378571D01*
X96942857Y-46878571D01*
X98300000Y-48378571D02*
X97442857Y-48378571D01*
X97871429Y-48378571D02*
X97871429Y-46878571D01*
X97728572Y-47092857D01*
X97585714Y-47235714D01*
X97442857Y-47307143D01*
X109107143Y-91678571D02*
X109107143Y-92892857D01*
X109178571Y-93035714D01*
X109250000Y-93107143D01*
X109392857Y-93178571D01*
X109678571Y-93178571D01*
X109821429Y-93107143D01*
X109892857Y-93035714D01*
X109964286Y-92892857D01*
X109964286Y-91678571D01*
X110607143Y-91821429D02*
X110678572Y-91750000D01*
X110821429Y-91678571D01*
X111178572Y-91678571D01*
X111321429Y-91750000D01*
X111392858Y-91821429D01*
X111464286Y-91964286D01*
X111464286Y-92107143D01*
X111392858Y-92321429D01*
X110535715Y-93178571D01*
X111464286Y-93178571D01*
D18*
X110762381Y-82759047D02*
X110762381Y-83235238D01*
X109762381Y-83235238D01*
X109857619Y-82473333D02*
X109810000Y-82425714D01*
X109762381Y-82330476D01*
X109762381Y-82092380D01*
X109810000Y-81997142D01*
X109857619Y-81949523D01*
X109952857Y-81901904D01*
X110048095Y-81901904D01*
X110190952Y-81949523D01*
X110762381Y-82520952D01*
X110762381Y-81901904D01*
X110762381Y-81425714D02*
X110762381Y-81235238D01*
X110714762Y-81139999D01*
X110667143Y-81092380D01*
X110524286Y-80997142D01*
X110333810Y-80949523D01*
X109952857Y-80949523D01*
X109857619Y-80997142D01*
X109810000Y-81044761D01*
X109762381Y-81139999D01*
X109762381Y-81330476D01*
X109810000Y-81425714D01*
X109857619Y-81473333D01*
X109952857Y-81520952D01*
X110190952Y-81520952D01*
X110286190Y-81473333D01*
X110333810Y-81425714D01*
X110381429Y-81330476D01*
X110381429Y-81139999D01*
X110333810Y-81044761D01*
X110286190Y-80997142D01*
X110190952Y-80949523D01*
X109762381Y-80616190D02*
X109762381Y-79997142D01*
X110143333Y-80330476D01*
X110143333Y-80187618D01*
X110190952Y-80092380D01*
X110238571Y-80044761D01*
X110333810Y-79997142D01*
X110571905Y-79997142D01*
X110667143Y-80044761D01*
X110714762Y-80092380D01*
X110762381Y-80187618D01*
X110762381Y-80473333D01*
X110714762Y-80568571D01*
X110667143Y-80616190D01*
X110762381Y-79568571D02*
X109762381Y-79568571D01*
X109762381Y-79330476D01*
X109810000Y-79187618D01*
X109905238Y-79092380D01*
X110000476Y-79044761D01*
X110190952Y-78997142D01*
X110333810Y-78997142D01*
X110524286Y-79044761D01*
X110619524Y-79092380D01*
X110714762Y-79187618D01*
X110762381Y-79330476D01*
X110762381Y-79568571D01*
D16*
X175750000Y-85678571D02*
X175750000Y-86750000D01*
X175678572Y-86964286D01*
X175535715Y-87107143D01*
X175321429Y-87178571D01*
X175178572Y-87178571D01*
X176321429Y-85678571D02*
X177250000Y-85678571D01*
X176750000Y-86250000D01*
X176964286Y-86250000D01*
X177107143Y-86321429D01*
X177178572Y-86392857D01*
X177250000Y-86535714D01*
X177250000Y-86892857D01*
X177178572Y-87035714D01*
X177107143Y-87107143D01*
X176964286Y-87178571D01*
X176535714Y-87178571D01*
X176392857Y-87107143D01*
X176321429Y-87035714D01*
X176000000Y-48678571D02*
X176000000Y-49750000D01*
X175928572Y-49964286D01*
X175785715Y-50107143D01*
X175571429Y-50178571D01*
X175428572Y-50178571D01*
X177357143Y-49178571D02*
X177357143Y-50178571D01*
X177000000Y-48607143D02*
X176642857Y-49678571D01*
X177571429Y-49678571D01*
X144000000Y-115928571D02*
X144000000Y-117000000D01*
X143928572Y-117214286D01*
X143785715Y-117357143D01*
X143571429Y-117428571D01*
X143428572Y-117428571D01*
X144571429Y-115928571D02*
X145571429Y-115928571D01*
X144928572Y-117428571D01*
X130000000Y-115928571D02*
X130000000Y-117000000D01*
X129928572Y-117214286D01*
X129785715Y-117357143D01*
X129571429Y-117428571D01*
X129428572Y-117428571D01*
X130928572Y-116571429D02*
X130785714Y-116500000D01*
X130714286Y-116428571D01*
X130642857Y-116285714D01*
X130642857Y-116214286D01*
X130714286Y-116071429D01*
X130785714Y-116000000D01*
X130928572Y-115928571D01*
X131214286Y-115928571D01*
X131357143Y-116000000D01*
X131428572Y-116071429D01*
X131500000Y-116214286D01*
X131500000Y-116285714D01*
X131428572Y-116428571D01*
X131357143Y-116500000D01*
X131214286Y-116571429D01*
X130928572Y-116571429D01*
X130785714Y-116642857D01*
X130714286Y-116714286D01*
X130642857Y-116857143D01*
X130642857Y-117142857D01*
X130714286Y-117285714D01*
X130785714Y-117357143D01*
X130928572Y-117428571D01*
X131214286Y-117428571D01*
X131357143Y-117357143D01*
X131428572Y-117285714D01*
X131500000Y-117142857D01*
X131500000Y-116857143D01*
X131428572Y-116714286D01*
X131357143Y-116642857D01*
X131214286Y-116571429D01*
X161035715Y-66178571D02*
X161035715Y-67250000D01*
X160964287Y-67464286D01*
X160821430Y-67607143D01*
X160607144Y-67678571D01*
X160464287Y-67678571D01*
X162535715Y-67678571D02*
X161678572Y-67678571D01*
X162107144Y-67678571D02*
X162107144Y-66178571D01*
X161964287Y-66392857D01*
X161821429Y-66535714D01*
X161678572Y-66607143D01*
X163035715Y-66178571D02*
X163964286Y-66178571D01*
X163464286Y-66750000D01*
X163678572Y-66750000D01*
X163821429Y-66821429D01*
X163892858Y-66892857D01*
X163964286Y-67035714D01*
X163964286Y-67392857D01*
X163892858Y-67535714D01*
X163821429Y-67607143D01*
X163678572Y-67678571D01*
X163250000Y-67678571D01*
X163107143Y-67607143D01*
X163035715Y-67535714D01*
X123785715Y-65678571D02*
X123785715Y-66750000D01*
X123714287Y-66964286D01*
X123571430Y-67107143D01*
X123357144Y-67178571D01*
X123214287Y-67178571D01*
X125285715Y-67178571D02*
X124428572Y-67178571D01*
X124857144Y-67178571D02*
X124857144Y-65678571D01*
X124714287Y-65892857D01*
X124571429Y-66035714D01*
X124428572Y-66107143D01*
X125857143Y-65821429D02*
X125928572Y-65750000D01*
X126071429Y-65678571D01*
X126428572Y-65678571D01*
X126571429Y-65750000D01*
X126642858Y-65821429D01*
X126714286Y-65964286D01*
X126714286Y-66107143D01*
X126642858Y-66321429D01*
X125785715Y-67178571D01*
X126714286Y-67178571D01*
D18*
X161833334Y-53702381D02*
X161500000Y-53226190D01*
X161261905Y-53702381D02*
X161261905Y-52702381D01*
X161642858Y-52702381D01*
X161738096Y-52750000D01*
X161785715Y-52797619D01*
X161833334Y-52892857D01*
X161833334Y-53035714D01*
X161785715Y-53130952D01*
X161738096Y-53178571D01*
X161642858Y-53226190D01*
X161261905Y-53226190D01*
X162738096Y-52702381D02*
X162261905Y-52702381D01*
X162214286Y-53178571D01*
X162261905Y-53130952D01*
X162357143Y-53083333D01*
X162595239Y-53083333D01*
X162690477Y-53130952D01*
X162738096Y-53178571D01*
X162785715Y-53273810D01*
X162785715Y-53511905D01*
X162738096Y-53607143D01*
X162690477Y-53654762D01*
X162595239Y-53702381D01*
X162357143Y-53702381D01*
X162261905Y-53654762D01*
X162214286Y-53607143D01*
X156833334Y-53702381D02*
X156500000Y-53226190D01*
X156261905Y-53702381D02*
X156261905Y-52702381D01*
X156642858Y-52702381D01*
X156738096Y-52750000D01*
X156785715Y-52797619D01*
X156833334Y-52892857D01*
X156833334Y-53035714D01*
X156785715Y-53130952D01*
X156738096Y-53178571D01*
X156642858Y-53226190D01*
X156261905Y-53226190D01*
X157690477Y-53035714D02*
X157690477Y-53702381D01*
X157452381Y-52654762D02*
X157214286Y-53369048D01*
X157833334Y-53369048D01*
X152333334Y-53702381D02*
X152000000Y-53226190D01*
X151761905Y-53702381D02*
X151761905Y-52702381D01*
X152142858Y-52702381D01*
X152238096Y-52750000D01*
X152285715Y-52797619D01*
X152333334Y-52892857D01*
X152333334Y-53035714D01*
X152285715Y-53130952D01*
X152238096Y-53178571D01*
X152142858Y-53226190D01*
X151761905Y-53226190D01*
X152666667Y-52702381D02*
X153285715Y-52702381D01*
X152952381Y-53083333D01*
X153095239Y-53083333D01*
X153190477Y-53130952D01*
X153238096Y-53178571D01*
X153285715Y-53273810D01*
X153285715Y-53511905D01*
X153238096Y-53607143D01*
X153190477Y-53654762D01*
X153095239Y-53702381D01*
X152809524Y-53702381D01*
X152714286Y-53654762D01*
X152666667Y-53607143D01*
X145833334Y-53702381D02*
X145500000Y-53226190D01*
X145261905Y-53702381D02*
X145261905Y-52702381D01*
X145642858Y-52702381D01*
X145738096Y-52750000D01*
X145785715Y-52797619D01*
X145833334Y-52892857D01*
X145833334Y-53035714D01*
X145785715Y-53130952D01*
X145738096Y-53178571D01*
X145642858Y-53226190D01*
X145261905Y-53226190D01*
X146214286Y-52797619D02*
X146261905Y-52750000D01*
X146357143Y-52702381D01*
X146595239Y-52702381D01*
X146690477Y-52750000D01*
X146738096Y-52797619D01*
X146785715Y-52892857D01*
X146785715Y-52988095D01*
X146738096Y-53130952D01*
X146166667Y-53702381D01*
X146785715Y-53702381D01*
X141833334Y-53702381D02*
X141500000Y-53226190D01*
X141261905Y-53702381D02*
X141261905Y-52702381D01*
X141642858Y-52702381D01*
X141738096Y-52750000D01*
X141785715Y-52797619D01*
X141833334Y-52892857D01*
X141833334Y-53035714D01*
X141785715Y-53130952D01*
X141738096Y-53178571D01*
X141642858Y-53226190D01*
X141261905Y-53226190D01*
X142785715Y-53702381D02*
X142214286Y-53702381D01*
X142500000Y-53702381D02*
X142500000Y-52702381D01*
X142404762Y-52845238D01*
X142309524Y-52940476D01*
X142214286Y-52988095D01*
D16*
X117035715Y-56928571D02*
X117035715Y-58000000D01*
X116964287Y-58214286D01*
X116821430Y-58357143D01*
X116607144Y-58428571D01*
X116464287Y-58428571D01*
X118535715Y-58428571D02*
X117678572Y-58428571D01*
X118107144Y-58428571D02*
X118107144Y-56928571D01*
X117964287Y-57142857D01*
X117821429Y-57285714D01*
X117678572Y-57357143D01*
X119464286Y-56928571D02*
X119607143Y-56928571D01*
X119750000Y-57000000D01*
X119821429Y-57071429D01*
X119892858Y-57214286D01*
X119964286Y-57500000D01*
X119964286Y-57857143D01*
X119892858Y-58142857D01*
X119821429Y-58285714D01*
X119750000Y-58357143D01*
X119607143Y-58428571D01*
X119464286Y-58428571D01*
X119321429Y-58357143D01*
X119250000Y-58285714D01*
X119178572Y-58142857D01*
X119107143Y-57857143D01*
X119107143Y-57500000D01*
X119178572Y-57214286D01*
X119250000Y-57071429D01*
X119321429Y-57000000D01*
X119464286Y-56928571D01*
X150750000Y-67428571D02*
X150750000Y-68500000D01*
X150678572Y-68714286D01*
X150535715Y-68857143D01*
X150321429Y-68928571D01*
X150178572Y-68928571D01*
X151392857Y-67571429D02*
X151464286Y-67500000D01*
X151607143Y-67428571D01*
X151964286Y-67428571D01*
X152107143Y-67500000D01*
X152178572Y-67571429D01*
X152250000Y-67714286D01*
X152250000Y-67857143D01*
X152178572Y-68071429D01*
X151321429Y-68928571D01*
X152250000Y-68928571D01*
X135500000Y-67428571D02*
X135500000Y-68500000D01*
X135428572Y-68714286D01*
X135285715Y-68857143D01*
X135071429Y-68928571D01*
X134928572Y-68928571D01*
X137000000Y-68928571D02*
X136142857Y-68928571D01*
X136571429Y-68928571D02*
X136571429Y-67428571D01*
X136428572Y-67642857D01*
X136285714Y-67785714D01*
X136142857Y-67857143D01*
X163892858Y-35678571D02*
X163892858Y-34178571D01*
X164250001Y-34178571D01*
X164464286Y-34250000D01*
X164607144Y-34392857D01*
X164678572Y-34535714D01*
X164750001Y-34821429D01*
X164750001Y-35035714D01*
X164678572Y-35321429D01*
X164607144Y-35464286D01*
X164464286Y-35607143D01*
X164250001Y-35678571D01*
X163892858Y-35678571D01*
X166035715Y-34678571D02*
X166035715Y-35678571D01*
X165678572Y-34107143D02*
X165321429Y-35178571D01*
X166250001Y-35178571D01*
X155642858Y-35678571D02*
X155642858Y-34178571D01*
X156000001Y-34178571D01*
X156214286Y-34250000D01*
X156357144Y-34392857D01*
X156428572Y-34535714D01*
X156500001Y-34821429D01*
X156500001Y-35035714D01*
X156428572Y-35321429D01*
X156357144Y-35464286D01*
X156214286Y-35607143D01*
X156000001Y-35678571D01*
X155642858Y-35678571D01*
X157000001Y-34178571D02*
X157928572Y-34178571D01*
X157428572Y-34750000D01*
X157642858Y-34750000D01*
X157785715Y-34821429D01*
X157857144Y-34892857D01*
X157928572Y-35035714D01*
X157928572Y-35392857D01*
X157857144Y-35535714D01*
X157785715Y-35607143D01*
X157642858Y-35678571D01*
X157214286Y-35678571D01*
X157071429Y-35607143D01*
X157000001Y-35535714D01*
X147142858Y-35678571D02*
X147142858Y-34178571D01*
X147500001Y-34178571D01*
X147714286Y-34250000D01*
X147857144Y-34392857D01*
X147928572Y-34535714D01*
X148000001Y-34821429D01*
X148000001Y-35035714D01*
X147928572Y-35321429D01*
X147857144Y-35464286D01*
X147714286Y-35607143D01*
X147500001Y-35678571D01*
X147142858Y-35678571D01*
X148571429Y-34321429D02*
X148642858Y-34250000D01*
X148785715Y-34178571D01*
X149142858Y-34178571D01*
X149285715Y-34250000D01*
X149357144Y-34321429D01*
X149428572Y-34464286D01*
X149428572Y-34607143D01*
X149357144Y-34821429D01*
X148500001Y-35678571D01*
X149428572Y-35678571D01*
X139392858Y-35678571D02*
X139392858Y-34178571D01*
X139750001Y-34178571D01*
X139964286Y-34250000D01*
X140107144Y-34392857D01*
X140178572Y-34535714D01*
X140250001Y-34821429D01*
X140250001Y-35035714D01*
X140178572Y-35321429D01*
X140107144Y-35464286D01*
X139964286Y-35607143D01*
X139750001Y-35678571D01*
X139392858Y-35678571D01*
X141678572Y-35678571D02*
X140821429Y-35678571D01*
X141250001Y-35678571D02*
X141250001Y-34178571D01*
X141107144Y-34392857D01*
X140964286Y-34535714D01*
X140821429Y-34607143D01*
D18*
X127833334Y-53107143D02*
X127785715Y-53154762D01*
X127642858Y-53202381D01*
X127547620Y-53202381D01*
X127404762Y-53154762D01*
X127309524Y-53059524D01*
X127261905Y-52964286D01*
X127214286Y-52773810D01*
X127214286Y-52630952D01*
X127261905Y-52440476D01*
X127309524Y-52345238D01*
X127404762Y-52250000D01*
X127547620Y-52202381D01*
X127642858Y-52202381D01*
X127785715Y-52250000D01*
X127833334Y-52297619D01*
X128214286Y-52297619D02*
X128261905Y-52250000D01*
X128357143Y-52202381D01*
X128595239Y-52202381D01*
X128690477Y-52250000D01*
X128738096Y-52297619D01*
X128785715Y-52392857D01*
X128785715Y-52488095D01*
X128738096Y-52630952D01*
X128166667Y-53202381D01*
X128785715Y-53202381D01*
X111833334Y-53107143D02*
X111785715Y-53154762D01*
X111642858Y-53202381D01*
X111547620Y-53202381D01*
X111404762Y-53154762D01*
X111309524Y-53059524D01*
X111261905Y-52964286D01*
X111214286Y-52773810D01*
X111214286Y-52630952D01*
X111261905Y-52440476D01*
X111309524Y-52345238D01*
X111404762Y-52250000D01*
X111547620Y-52202381D01*
X111642858Y-52202381D01*
X111785715Y-52250000D01*
X111833334Y-52297619D01*
X112785715Y-53202381D02*
X112214286Y-53202381D01*
X112500000Y-53202381D02*
X112500000Y-52202381D01*
X112404762Y-52345238D01*
X112309524Y-52440476D01*
X112214286Y-52488095D01*
X110666667Y-95928571D02*
X110333333Y-95928571D01*
X110333333Y-96452381D02*
X110333333Y-95452381D01*
X110809524Y-95452381D01*
X111142857Y-95547619D02*
X111190476Y-95500000D01*
X111285714Y-95452381D01*
X111523810Y-95452381D01*
X111619048Y-95500000D01*
X111666667Y-95547619D01*
X111714286Y-95642857D01*
X111714286Y-95738095D01*
X111666667Y-95880952D01*
X111095238Y-96452381D01*
X111714286Y-96452381D01*
X114666667Y-95928571D02*
X114333333Y-95928571D01*
X114333333Y-96452381D02*
X114333333Y-95452381D01*
X114809524Y-95452381D01*
X115714286Y-96452381D02*
X115142857Y-96452381D01*
X115428571Y-96452381D02*
X115428571Y-95452381D01*
X115333333Y-95595238D01*
X115238095Y-95690476D01*
X115142857Y-95738095D01*
X118416667Y-95928571D02*
X118083333Y-95928571D01*
X118083333Y-96452381D02*
X118083333Y-95452381D01*
X118559524Y-95452381D01*
X118845238Y-95452381D02*
X119464286Y-95452381D01*
X119130952Y-95833333D01*
X119273810Y-95833333D01*
X119369048Y-95880952D01*
X119416667Y-95928571D01*
X119464286Y-96023810D01*
X119464286Y-96261905D01*
X119416667Y-96357143D01*
X119369048Y-96404762D01*
X119273810Y-96452381D01*
X118988095Y-96452381D01*
X118892857Y-96404762D01*
X118845238Y-96357143D01*
X167633334Y-67352381D02*
X167300000Y-66876190D01*
X167061905Y-67352381D02*
X167061905Y-66352381D01*
X167442858Y-66352381D01*
X167538096Y-66400000D01*
X167585715Y-66447619D01*
X167633334Y-66542857D01*
X167633334Y-66685714D01*
X167585715Y-66780952D01*
X167538096Y-66828571D01*
X167442858Y-66876190D01*
X167061905Y-66876190D01*
X168490477Y-66352381D02*
X168300000Y-66352381D01*
X168204762Y-66400000D01*
X168157143Y-66447619D01*
X168061905Y-66590476D01*
X168014286Y-66780952D01*
X168014286Y-67161905D01*
X168061905Y-67257143D01*
X168109524Y-67304762D01*
X168204762Y-67352381D01*
X168395239Y-67352381D01*
X168490477Y-67304762D01*
X168538096Y-67257143D01*
X168585715Y-67161905D01*
X168585715Y-66923810D01*
X168538096Y-66828571D01*
X168490477Y-66780952D01*
X168395239Y-66733333D01*
X168204762Y-66733333D01*
X168109524Y-66780952D01*
X168061905Y-66828571D01*
X168014286Y-66923810D01*
X100333334Y-120357143D02*
X100285715Y-120404762D01*
X100142858Y-120452381D01*
X100047620Y-120452381D01*
X99904762Y-120404762D01*
X99809524Y-120309524D01*
X99761905Y-120214286D01*
X99714286Y-120023810D01*
X99714286Y-119880952D01*
X99761905Y-119690476D01*
X99809524Y-119595238D01*
X99904762Y-119500000D01*
X100047620Y-119452381D01*
X100142858Y-119452381D01*
X100285715Y-119500000D01*
X100333334Y-119547619D01*
X100666667Y-119452381D02*
X101285715Y-119452381D01*
X100952381Y-119833333D01*
X101095239Y-119833333D01*
X101190477Y-119880952D01*
X101238096Y-119928571D01*
X101285715Y-120023810D01*
X101285715Y-120261905D01*
X101238096Y-120357143D01*
X101190477Y-120404762D01*
X101095239Y-120452381D01*
X100809524Y-120452381D01*
X100714286Y-120404762D01*
X100666667Y-120357143D01*
X92133334Y-120352381D02*
X91800000Y-119876190D01*
X91561905Y-120352381D02*
X91561905Y-119352381D01*
X91942858Y-119352381D01*
X92038096Y-119400000D01*
X92085715Y-119447619D01*
X92133334Y-119542857D01*
X92133334Y-119685714D01*
X92085715Y-119780952D01*
X92038096Y-119828571D01*
X91942858Y-119876190D01*
X91561905Y-119876190D01*
X92466667Y-119352381D02*
X93133334Y-119352381D01*
X92704762Y-120352381D01*
D16*
X95585715Y-73878571D02*
X95585715Y-74950000D01*
X95514287Y-75164286D01*
X95371430Y-75307143D01*
X95157144Y-75378571D01*
X95014287Y-75378571D01*
X97085715Y-75378571D02*
X96228572Y-75378571D01*
X96657144Y-75378571D02*
X96657144Y-73878571D01*
X96514287Y-74092857D01*
X96371429Y-74235714D01*
X96228572Y-74307143D01*
X98514286Y-75378571D02*
X97657143Y-75378571D01*
X98085715Y-75378571D02*
X98085715Y-73878571D01*
X97942858Y-74092857D01*
X97800000Y-74235714D01*
X97657143Y-74307143D01*
D18*
M02*
