M48
;DRILL file {KiCad 4.0.7} date 02/07/18 15:22:17
;FORMAT={-:-/ absolute / metric / decimal}
FMAT,2
METRIC,TZ
T1C0.400
T2C0.750
T3C0.813
T4C0.889
T5C0.900
T6C1.000
T7C1.001
T8C1.016
T9C1.143
T10C1.500
T11C4.700
%
G90
G05
M71
T1
X95.1Y-96.4
X108.Y-79.9
X108.Y-82.4
X108.8Y-81.
X109.6Y-79.9
X109.6Y-82.4
X109.6Y-123.5
X110.9Y-79.9
X111.Y-82.4
X111.6Y-81.
X112.3Y-82.4
X112.4Y-79.9
X114.3Y-67.6
X116.9Y-64.5
X120.7Y-91.7
X150.3Y-58.8
X153.9Y-115.9
X157.2Y-58.8
X166.Y-115.5
X170.3Y-61.3
X170.3Y-72.9
T2
X96.2Y-78.
X96.2Y-80.
T3
X106.5Y-72.25
X106.5Y-74.79
X106.5Y-77.33
X106.5Y-79.87
X106.5Y-82.41
X106.5Y-84.95
X106.5Y-87.49
X106.5Y-90.03
X114.12Y-72.25
X114.12Y-74.79
X114.12Y-77.33
X114.12Y-79.87
X114.12Y-79.87
X114.12Y-82.41
X114.12Y-84.95
X114.12Y-87.49
X114.12Y-90.03
T4
X102.Y-103.75
X102.Y-106.29
X102.Y-108.83
X107.25Y-99.42
X107.25Y-104.5
X108.Y-119.
X110.54Y-119.
X111.25Y-99.42
X111.25Y-104.5
X113.08Y-119.
X115.Y-99.42
X115.Y-104.5
X115.62Y-119.
X118.16Y-119.
X118.75Y-99.42
X118.75Y-104.5
X120.7Y-119.
X131.75Y-119.
X134.29Y-119.
X145.75Y-119.
X148.29Y-119.
X159.5Y-119.
X162.04Y-119.
X164.58Y-119.
X167.12Y-119.
X169.66Y-119.
X172.2Y-119.
X176.25Y-53.38
X176.25Y-55.92
X176.25Y-58.46
X176.25Y-61.
T5
X140.25Y-38.
X140.25Y-40.54
X148.5Y-38.
X148.5Y-40.54
X156.75Y-38.
X156.75Y-40.54
X165.Y-38.
X165.Y-40.54
T6
X113.25Y-60.75
X115.79Y-60.75
X118.33Y-60.75
X120.87Y-60.75
X123.41Y-60.75
X125.Y-69.75
X125.Y-72.29
X125.Y-74.83
X125.Y-77.37
X125.Y-79.91
X125.Y-82.45
X125.Y-84.99
X125.Y-87.53
X125.Y-90.07
X125.Y-92.61
X125.Y-95.15
X125.Y-97.69
X125.Y-100.23
X125.Y-102.77
X125.Y-105.31
X136.Y-71.
X136.Y-73.54
X136.Y-76.08
X136.Y-78.62
X136.Y-81.16
X136.Y-83.7
X136.Y-86.24
X136.Y-88.78
X136.Y-91.32
X136.Y-93.86
X136.Y-96.4
X136.Y-98.94
X136.Y-101.48
X136.Y-104.02
X151.25Y-71.
X151.25Y-73.54
X151.25Y-76.08
X151.25Y-78.62
X151.25Y-81.16
X151.25Y-83.7
X151.25Y-86.24
X151.25Y-88.78
X151.25Y-91.32
X151.25Y-93.86
X151.25Y-96.4
X151.25Y-98.94
X151.25Y-101.48
X151.25Y-104.02
X162.25Y-69.75
X162.25Y-72.29
X162.25Y-74.83
X162.25Y-77.37
X162.25Y-79.91
X162.25Y-82.45
X162.25Y-84.99
X162.25Y-87.53
X162.25Y-90.07
X162.25Y-92.61
X162.25Y-95.15
X162.25Y-97.69
X162.25Y-100.23
X162.25Y-102.77
X162.25Y-105.31
T7
X179.Y-73.67
X179.Y-78.75
T8
X176.25Y-90.34
X176.25Y-90.34
X176.25Y-92.88
X176.25Y-92.88
X176.25Y-95.42
X176.25Y-95.42
X176.25Y-97.96
X176.25Y-97.96
X176.25Y-100.5
X176.25Y-100.5
T9
X116.96Y-41.5
X119.5Y-41.5
X122.04Y-41.5
T10
X96.3Y-52.
X96.3Y-56.7
X96.3Y-61.4
T11
X96.Y-38.75
X96.Y-124.75
X182.Y-38.75
X182.Y-124.75
T0
M30
