G04 #@! TF.FileFunction,Soldermask,Top*
%FSLAX46Y46*%
G04 Gerber Fmt 4.6, Leading zero omitted, Abs format (unit mm)*
G04 Created by KiCad (PCBNEW 4.0.7) date 02/07/18 15:21:04*
%MOMM*%
%LPD*%
G01*
G04 APERTURE LIST*
%ADD10C,0.100000*%
%ADD11R,1.797000X1.797000*%
%ADD12C,1.797000*%
%ADD13C,2.899360*%
%ADD14O,2.432000X2.940000*%
%ADD15C,3.400000*%
%ADD16R,1.924000X1.924000*%
%ADD17C,1.924000*%
%ADD18R,2.100000X2.100000*%
%ADD19O,2.100000X2.100000*%
%ADD20C,8.900000*%
%ADD21R,2.100000X2.400000*%
%ADD22R,2.200000X2.200000*%
%ADD23C,2.200000*%
%ADD24R,2.000000X2.400000*%
%ADD25R,2.100000X1.600000*%
%ADD26O,2.100000X1.600000*%
G04 APERTURE END LIST*
D10*
D11*
X107250000Y-99420000D03*
D12*
X107250000Y-104500000D03*
X172200000Y-119000000D03*
X169660000Y-119000000D03*
X167120000Y-119000000D03*
X164580000Y-119000000D03*
X162040000Y-119000000D03*
X159500000Y-119000000D03*
X120700000Y-119000000D03*
X118160000Y-119000000D03*
X115620000Y-119000000D03*
X113080000Y-119000000D03*
X110540000Y-119000000D03*
X108000000Y-119000000D03*
X102000000Y-108830000D03*
X102000000Y-106290000D03*
X102000000Y-103750000D03*
D13*
X179000000Y-73670000D03*
X179000000Y-78750000D03*
D14*
X119500000Y-41500000D03*
X122040000Y-41500000D03*
X116960000Y-41500000D03*
D15*
X96300000Y-61400000D03*
X96300000Y-56700000D03*
X96300000Y-52000000D03*
D16*
X114120000Y-90030000D03*
D17*
X114120000Y-87490000D03*
X114120000Y-84950000D03*
X114120000Y-82410000D03*
X114120000Y-79870000D03*
X114120000Y-77330000D03*
X114120000Y-74790000D03*
X114120000Y-72250000D03*
X106500000Y-72250000D03*
X106500000Y-74790000D03*
X106500000Y-77330000D03*
X106500000Y-79870000D03*
X106500000Y-82410000D03*
X106500000Y-84950000D03*
X106500000Y-87490000D03*
X106500000Y-90030000D03*
X176250000Y-90340000D03*
X176250000Y-92880000D03*
X176250000Y-95420000D03*
X176250000Y-97960000D03*
X176250000Y-100500000D03*
D12*
X176250000Y-53380000D03*
X176250000Y-55920000D03*
X176250000Y-58460000D03*
X176250000Y-61000000D03*
X148290000Y-119000000D03*
X145750000Y-119000000D03*
X134290000Y-119000000D03*
X131750000Y-119000000D03*
D18*
X162250000Y-69750000D03*
D19*
X162250000Y-72290000D03*
X162250000Y-74830000D03*
X162250000Y-77370000D03*
X162250000Y-79910000D03*
X162250000Y-82450000D03*
X162250000Y-84990000D03*
X162250000Y-87530000D03*
X162250000Y-90070000D03*
X162250000Y-92610000D03*
X162250000Y-95150000D03*
X162250000Y-97690000D03*
X162250000Y-100230000D03*
X162250000Y-102770000D03*
X162250000Y-105310000D03*
D18*
X125000000Y-69750000D03*
D19*
X125000000Y-72290000D03*
X125000000Y-74830000D03*
X125000000Y-77370000D03*
X125000000Y-79910000D03*
X125000000Y-82450000D03*
X125000000Y-84990000D03*
X125000000Y-87530000D03*
X125000000Y-90070000D03*
X125000000Y-92610000D03*
X125000000Y-95150000D03*
X125000000Y-97690000D03*
X125000000Y-100230000D03*
X125000000Y-102770000D03*
X125000000Y-105310000D03*
D20*
X96000000Y-38750000D03*
X182000000Y-124750000D03*
X96000000Y-124750000D03*
X182000000Y-38750000D03*
D21*
X162000000Y-51250000D03*
X162000000Y-47250000D03*
X157000000Y-51250000D03*
X157000000Y-47250000D03*
X152500000Y-51250000D03*
X152500000Y-47250000D03*
X145750000Y-51250000D03*
X145750000Y-47250000D03*
X142000000Y-51250000D03*
X142000000Y-47250000D03*
D18*
X113250000Y-60750000D03*
D19*
X115790000Y-60750000D03*
X118330000Y-60750000D03*
X120870000Y-60750000D03*
X123410000Y-60750000D03*
D18*
X151250000Y-71000000D03*
D19*
X151250000Y-73540000D03*
X151250000Y-76080000D03*
X151250000Y-78620000D03*
X151250000Y-81160000D03*
X151250000Y-83700000D03*
X151250000Y-86240000D03*
X151250000Y-88780000D03*
X151250000Y-91320000D03*
X151250000Y-93860000D03*
X151250000Y-96400000D03*
X151250000Y-98940000D03*
X151250000Y-101480000D03*
X151250000Y-104020000D03*
D18*
X136000000Y-71000000D03*
D19*
X136000000Y-73540000D03*
X136000000Y-76080000D03*
X136000000Y-78620000D03*
X136000000Y-81160000D03*
X136000000Y-83700000D03*
X136000000Y-86240000D03*
X136000000Y-88780000D03*
X136000000Y-91320000D03*
X136000000Y-93860000D03*
X136000000Y-96400000D03*
X136000000Y-98940000D03*
X136000000Y-101480000D03*
X136000000Y-104020000D03*
D22*
X165000000Y-38000000D03*
D23*
X165000000Y-40540000D03*
D22*
X156750000Y-38000000D03*
D23*
X156750000Y-40540000D03*
D22*
X148500000Y-38000000D03*
D23*
X148500000Y-40540000D03*
D22*
X140250000Y-38000000D03*
D23*
X140250000Y-40540000D03*
D24*
X128000000Y-46750000D03*
X128000000Y-50750000D03*
X112000000Y-46750000D03*
X112000000Y-50750000D03*
D11*
X111250000Y-99420000D03*
D12*
X111250000Y-104500000D03*
D11*
X115000000Y-99420000D03*
D12*
X115000000Y-104500000D03*
D11*
X118750000Y-99420000D03*
D12*
X118750000Y-104500000D03*
D21*
X170300000Y-68900000D03*
X170300000Y-64900000D03*
D24*
X98700000Y-114100000D03*
X98700000Y-118100000D03*
D21*
X94500000Y-114100000D03*
X94500000Y-118100000D03*
D25*
X96200000Y-80000000D03*
D26*
X96200000Y-78000000D03*
M02*
